%FSLAX25Y25*%
%MOIN*%
G70*
G01*
G75*
G04 Layer_Physical_Order=1*
G04 Layer_Color=255*
%ADD10R,0.05000X0.06000*%
%ADD11R,0.20000X0.03000*%
%ADD12C,0.06000*%
%ADD13C,0.02000*%
%ADD14C,0.03000*%
%ADD15C,0.06000*%
%ADD16C,0.07500*%
%ADD17R,0.05906X0.05906*%
%ADD18C,0.05906*%
%ADD19R,0.05906X0.05906*%
%ADD20C,0.08000*%
%ADD21R,0.08000X0.08000*%
%ADD22O,0.17716X0.07874*%
%ADD23O,0.15748X0.07874*%
%ADD24O,0.07874X0.15748*%
%ADD25C,0.05906*%
%ADD26C,0.12598*%
%ADD27C,0.09055*%
%ADD28C,0.62992*%
%ADD29C,0.05118*%
%ADD30C,0.07087*%
%ADD31R,0.07087X0.07087*%
%ADD32C,0.23622*%
%ADD33C,0.07874*%
%ADD34R,0.06000X0.06000*%
%ADD35C,0.05000*%
G36*
X185000Y377000D02*
X183000D01*
Y381000D01*
X185000D01*
Y377000D01*
D02*
G37*
G36*
X165974Y254747D02*
Y189753D01*
X146860Y170640D01*
X146379Y170013D01*
X146291Y169799D01*
X146077Y169283D01*
X145974Y168500D01*
Y118900D01*
X146077Y118117D01*
X146291Y117601D01*
X146379Y117387D01*
X146860Y116760D01*
X180760Y82860D01*
X181387Y82380D01*
X181601Y82291D01*
X182117Y82077D01*
X182900Y81974D01*
X188500D01*
Y80000D01*
Y71000D01*
X197500D01*
Y72974D01*
X201000D01*
Y71000D01*
X202474D01*
Y64253D01*
X202027Y63807D01*
X201676Y63913D01*
X200500Y64029D01*
X199324Y63913D01*
X198193Y63570D01*
X197151Y63013D01*
X196237Y62263D01*
X195487Y61349D01*
X194930Y60307D01*
X194587Y59176D01*
X194471Y58000D01*
X194587Y56824D01*
X194930Y55693D01*
X195487Y54650D01*
X196237Y53737D01*
X197151Y52987D01*
X197474Y52814D01*
Y14000D01*
X194500D01*
Y3000D01*
X184433D01*
X183953Y3047D01*
Y7313D01*
X184043Y8000D01*
Y18500D01*
X184043Y18500D01*
X183871Y19805D01*
X183368Y21022D01*
X182566Y22066D01*
X143066Y61566D01*
X142022Y62367D01*
X140805Y62871D01*
X139500Y63043D01*
X120984D01*
X119679Y62871D01*
X118463Y62367D01*
X117418Y61566D01*
X115755Y59903D01*
X112122D01*
Y116490D01*
X129566Y133934D01*
X129974Y134466D01*
X130474Y134296D01*
Y110421D01*
X129968Y110032D01*
X129174Y108998D01*
X128675Y107793D01*
X128505Y106500D01*
X128675Y105207D01*
X129174Y104002D01*
X129968Y102968D01*
X131002Y102174D01*
X132207Y101675D01*
X133500Y101505D01*
X134793Y101675D01*
X135998Y102174D01*
X137032Y102968D01*
X137826Y104002D01*
X138325Y105207D01*
X138496Y106500D01*
X138325Y107793D01*
X137826Y108998D01*
X137032Y110032D01*
X136526Y110421D01*
Y167414D01*
X136658Y167480D01*
X137026Y167613D01*
X138195Y167129D01*
X139500Y166957D01*
X140805Y167129D01*
X142022Y167632D01*
X143066Y168434D01*
X143868Y169478D01*
X144371Y170695D01*
X144543Y172000D01*
X144371Y173305D01*
X143868Y174522D01*
X143066Y175566D01*
X142022Y176367D01*
X140805Y176871D01*
X139500Y177043D01*
X138195Y176871D01*
X137026Y176387D01*
X136658Y176521D01*
X136526Y176585D01*
Y186415D01*
X136658Y186479D01*
X137026Y186613D01*
X138195Y186129D01*
X139500Y185957D01*
X140805Y186129D01*
X142022Y186633D01*
X143066Y187434D01*
X143868Y188478D01*
X144371Y189695D01*
X144543Y191000D01*
X144371Y192305D01*
X143868Y193522D01*
X143066Y194566D01*
X142022Y195368D01*
X140805Y195871D01*
X139500Y196043D01*
X138195Y195871D01*
X137026Y195387D01*
X136658Y195520D01*
X136526Y195586D01*
Y204547D01*
X144453D01*
Y214453D01*
X136526D01*
Y220247D01*
X156640Y240360D01*
X156640Y240360D01*
X156912Y240715D01*
X157121Y240987D01*
X157246Y241289D01*
X157423Y241717D01*
X157526Y242500D01*
Y262542D01*
X157988Y262733D01*
X165974Y254747D01*
D02*
G37*
G36*
X314000Y1653D02*
X313538Y1462D01*
X312000Y3000D01*
X275546D01*
X275363Y3457D01*
X275365Y3500D01*
X276263Y4237D01*
X277013Y5150D01*
X277570Y6193D01*
X277913Y7324D01*
X278029Y8500D01*
X277913Y9676D01*
X277570Y10807D01*
X277013Y11850D01*
X276263Y12763D01*
X275349Y13513D01*
X275026Y13686D01*
Y53314D01*
X275349Y53487D01*
X276263Y54237D01*
X277013Y55151D01*
X277570Y56193D01*
X277913Y57324D01*
X278029Y58500D01*
X277913Y59676D01*
X277807Y60027D01*
X289040Y71260D01*
X289521Y71887D01*
X289609Y72101D01*
X289823Y72617D01*
X289926Y73400D01*
Y131079D01*
X290432Y131468D01*
X291226Y132502D01*
X291725Y133707D01*
X291896Y135000D01*
X291725Y136293D01*
X291226Y137498D01*
X290432Y138532D01*
X289398Y139326D01*
X288193Y139825D01*
X286900Y139996D01*
X285607Y139825D01*
X284402Y139326D01*
X283368Y138532D01*
X282574Y137498D01*
X282075Y136293D01*
X281953Y135366D01*
X281453Y135399D01*
Y136953D01*
X278000D01*
Y133500D01*
X281453D01*
Y134601D01*
X281953Y134634D01*
X282075Y133707D01*
X282574Y132502D01*
X283368Y131468D01*
X283874Y131079D01*
Y74653D01*
X273527Y64307D01*
X273176Y64413D01*
X272000Y64529D01*
X270824Y64413D01*
X269693Y64070D01*
X268651Y63513D01*
X267737Y62763D01*
X266987Y61849D01*
X266430Y60807D01*
X266087Y59676D01*
X265971Y58500D01*
X266087Y57324D01*
X266430Y56193D01*
X266987Y55151D01*
X267737Y54237D01*
X268651Y53487D01*
X268974Y53314D01*
Y13686D01*
X268651Y13513D01*
X267737Y12763D01*
X266987Y11850D01*
X266430Y10807D01*
X266087Y9676D01*
X265971Y8500D01*
X266087Y7324D01*
X266430Y6193D01*
X266987Y5150D01*
X267737Y4237D01*
X268635Y3500D01*
X268637Y3457D01*
X268454Y3000D01*
X258000D01*
Y14500D01*
X255026D01*
Y53314D01*
X255349Y53487D01*
X256263Y54237D01*
X257013Y55151D01*
X257570Y56193D01*
X257913Y57324D01*
X258029Y58500D01*
X257913Y59676D01*
X257570Y60807D01*
X257013Y61849D01*
X256263Y62763D01*
X255349Y63513D01*
X254307Y64070D01*
X253176Y64413D01*
X252000Y64529D01*
X250824Y64413D01*
X250473Y64307D01*
X249526Y65253D01*
Y71000D01*
X251000D01*
Y72974D01*
X256000D01*
Y71000D01*
X265000D01*
Y81000D01*
X264000D01*
Y84500D01*
X257000D01*
Y81000D01*
X256000D01*
Y79026D01*
X251000D01*
Y80000D01*
Y90000D01*
X249526D01*
Y102247D01*
X249827Y102547D01*
X255453D01*
Y112453D01*
X255385D01*
X255194Y112915D01*
X273047Y130768D01*
X273547Y130637D01*
Y129047D01*
X277000D01*
Y133000D01*
Y136953D01*
X274026D01*
Y138858D01*
X274474Y139079D01*
X275002Y138674D01*
X276207Y138175D01*
X277500Y138005D01*
X278793Y138175D01*
X279998Y138674D01*
X281032Y139468D01*
X281826Y140502D01*
X282325Y141707D01*
X282495Y143000D01*
X282325Y144293D01*
X281826Y145498D01*
X281032Y146532D01*
X279998Y147326D01*
X278793Y147825D01*
X277500Y147995D01*
X276207Y147825D01*
X275002Y147326D01*
X274474Y146921D01*
X274026Y147142D01*
Y170047D01*
X277000D01*
Y173500D01*
X273547D01*
Y173163D01*
X273047Y173032D01*
X270526Y175553D01*
Y222150D01*
X270709Y222291D01*
X271431Y223231D01*
X271884Y224325D01*
X272039Y225500D01*
X271884Y226675D01*
X271431Y227769D01*
X270709Y228709D01*
X269769Y229431D01*
X268675Y229884D01*
X267500Y230039D01*
X266325Y229884D01*
X265231Y229431D01*
X264291Y228709D01*
X263569Y227769D01*
X263116Y226675D01*
X262961Y225500D01*
X263116Y224325D01*
X263569Y223231D01*
X264291Y222291D01*
X264474Y222150D01*
Y174300D01*
X264577Y173517D01*
X264791Y173001D01*
X264879Y172787D01*
X265360Y172160D01*
X267974Y169547D01*
Y159534D01*
X267474Y159364D01*
X267209Y159709D01*
X266269Y160431D01*
X265175Y160884D01*
X264000Y161039D01*
X262825Y160884D01*
X261731Y160431D01*
X260791Y159709D01*
X260069Y158769D01*
X259616Y157675D01*
X259461Y156500D01*
X259549Y155829D01*
X257747Y154026D01*
X235953D01*
Y155953D01*
X226047D01*
Y146047D01*
X235953D01*
Y147974D01*
X258056D01*
X258079Y147973D01*
X258547Y147834D01*
X258547D01*
X258547D01*
Y138047D01*
X267974D01*
Y134253D01*
X248360Y114640D01*
X247880Y114013D01*
X247791Y113799D01*
X247577Y113283D01*
X247474Y112500D01*
Y112453D01*
X245547D01*
Y106826D01*
X244360Y105640D01*
X243880Y105013D01*
X243791Y104799D01*
X243577Y104283D01*
X243474Y103500D01*
Y90000D01*
X242000D01*
Y88026D01*
X237000D01*
Y90000D01*
X228000D01*
Y80000D01*
Y79026D01*
X223000D01*
Y80000D01*
Y90000D01*
X221526D01*
Y91747D01*
X232327Y102547D01*
X237953D01*
Y112453D01*
X228047D01*
Y106826D01*
X216360Y95140D01*
X215880Y94513D01*
X215791Y94299D01*
X215577Y93783D01*
X215526Y93393D01*
X215026Y93426D01*
Y98700D01*
X214923Y99483D01*
X214620Y100213D01*
X214140Y100840D01*
X201026Y113953D01*
Y136885D01*
X201314Y137040D01*
X202218Y137782D01*
X202960Y138686D01*
X203512Y139717D01*
X203851Y140836D01*
X203966Y142000D01*
X203851Y143164D01*
X203512Y144283D01*
X202960Y145314D01*
X202218Y146218D01*
X201314Y146960D01*
X200283Y147512D01*
X199164Y147851D01*
X198000Y147966D01*
X196836Y147851D01*
X195717Y147512D01*
X194686Y146960D01*
X193782Y146218D01*
X193040Y145314D01*
X192488Y144283D01*
X192149Y143164D01*
X192034Y142000D01*
X192149Y140836D01*
X192488Y139717D01*
X193040Y138686D01*
X193782Y137782D01*
X194686Y137040D01*
X194974Y136885D01*
Y112700D01*
X195077Y111917D01*
X195291Y111401D01*
X195379Y111187D01*
X195860Y110560D01*
X208974Y97447D01*
Y89000D01*
X206000D01*
Y85000D01*
X205500D01*
Y84500D01*
X202000D01*
Y81000D01*
X201000D01*
Y79026D01*
X197500D01*
Y80000D01*
Y90000D01*
X196026D01*
Y90679D01*
X196532Y91068D01*
X197326Y92102D01*
X197825Y93307D01*
X197995Y94600D01*
X197825Y95893D01*
X197326Y97098D01*
X196532Y98132D01*
X195498Y98926D01*
X194293Y99425D01*
X193000Y99595D01*
X191707Y99425D01*
X190502Y98926D01*
X189468Y98132D01*
X189366Y97999D01*
X188822Y98113D01*
X188551Y99007D01*
X188000Y100039D01*
X187258Y100943D01*
X186354Y101685D01*
X185322Y102236D01*
X184203Y102576D01*
X183039Y102690D01*
X181876Y102576D01*
X180756Y102236D01*
X179725Y101685D01*
X178821Y100943D01*
X178079Y100039D01*
X177528Y99007D01*
X177188Y97888D01*
X177074Y96724D01*
X177173Y95713D01*
X176717Y95462D01*
X152026Y120153D01*
Y156974D01*
X152474Y157195D01*
X152502Y157174D01*
X153707Y156675D01*
X155000Y156504D01*
X156293Y156675D01*
X157498Y157174D01*
X158532Y157968D01*
X159326Y159002D01*
X159825Y160207D01*
X159995Y161500D01*
X159825Y162793D01*
X159326Y163998D01*
X158532Y165032D01*
X158343Y165178D01*
X158304Y165825D01*
X176640Y184160D01*
X176640Y184160D01*
X176912Y184515D01*
X177120Y184787D01*
X177246Y185089D01*
X177423Y185517D01*
X177526Y186300D01*
Y258500D01*
X177423Y259283D01*
X177120Y260013D01*
X176640Y260640D01*
X166526Y270753D01*
Y328247D01*
X168236Y329957D01*
X169424D01*
X169585Y329483D01*
X169546Y329453D01*
X168658Y328296D01*
X168099Y326947D01*
X167909Y325500D01*
X168099Y324053D01*
X168658Y322704D01*
X169546Y321547D01*
X170514Y320804D01*
X170548Y320722D01*
Y320278D01*
X170514Y320196D01*
X169546Y319454D01*
X168658Y318296D01*
X168099Y316947D01*
X167909Y315500D01*
X168099Y314053D01*
X168658Y312704D01*
X169546Y311546D01*
X170514Y310804D01*
X170548Y310722D01*
Y310278D01*
X170514Y310196D01*
X169546Y309454D01*
X168658Y308296D01*
X168099Y306947D01*
X167909Y305500D01*
X168099Y304053D01*
X168658Y302704D01*
X169546Y301547D01*
X170514Y300804D01*
X170548Y300722D01*
Y300278D01*
X170514Y300196D01*
X169546Y299453D01*
X168658Y298296D01*
X168099Y296947D01*
X167909Y295500D01*
X168099Y294053D01*
X168658Y292704D01*
X169546Y291547D01*
X170514Y290804D01*
X170548Y290722D01*
Y290278D01*
X170514Y290196D01*
X169546Y289454D01*
X168658Y288296D01*
X168099Y286947D01*
X167909Y285500D01*
X168099Y284053D01*
X168658Y282704D01*
X169546Y281546D01*
X170704Y280658D01*
X172053Y280099D01*
X173500Y279909D01*
X174947Y280099D01*
X176296Y280658D01*
X177453Y281546D01*
X178342Y282704D01*
X178901Y284053D01*
X179091Y285500D01*
X178901Y286947D01*
X178342Y288296D01*
X177453Y289454D01*
X176486Y290196D01*
X176452Y290278D01*
Y290722D01*
X176486Y290804D01*
X177453Y291547D01*
X178342Y292704D01*
X178901Y294053D01*
X179091Y295500D01*
X178901Y296947D01*
X178342Y298296D01*
X177453Y299453D01*
X176486Y300196D01*
X176452Y300278D01*
Y300722D01*
X176486Y300804D01*
X177453Y301547D01*
X178165Y302474D01*
X182000D01*
X182783Y302577D01*
X183299Y302791D01*
X183513Y302880D01*
X184140Y303360D01*
X214640Y333860D01*
X214640Y333860D01*
X214912Y334215D01*
X215121Y334487D01*
X215423Y335217D01*
X215526Y336000D01*
Y346547D01*
X217453D01*
Y356453D01*
X215466D01*
X215423Y356783D01*
X215209Y357299D01*
X215121Y357513D01*
X214640Y358140D01*
X213267Y359512D01*
X213458Y359974D01*
X215247D01*
X219474Y355747D01*
Y299353D01*
X192533Y272412D01*
X191900Y272496D01*
X190607Y272325D01*
X189402Y271826D01*
X188368Y271032D01*
X187574Y269998D01*
X187075Y268793D01*
X186905Y267500D01*
X187075Y266207D01*
X187574Y265002D01*
X188368Y263968D01*
X189402Y263174D01*
X190607Y262675D01*
X191900Y262505D01*
X193193Y262675D01*
X194398Y263174D01*
X195432Y263968D01*
X196226Y265002D01*
X196725Y266207D01*
X196896Y267500D01*
X196812Y268133D01*
X201585Y272906D01*
X202047Y272715D01*
Y266547D01*
X211953D01*
Y268474D01*
X216747D01*
X217047Y268174D01*
Y266827D01*
X210673Y260453D01*
X202047D01*
Y250547D01*
X209474D01*
Y244453D01*
X202047D01*
Y238826D01*
X193960Y230740D01*
X193480Y230113D01*
X193391Y229899D01*
X193177Y229383D01*
X193074Y228600D01*
Y183821D01*
X192568Y183432D01*
X191774Y182398D01*
X191275Y181193D01*
X191104Y179900D01*
X191275Y178607D01*
X191774Y177402D01*
X192568Y176368D01*
X193602Y175574D01*
X194807Y175075D01*
X196100Y174905D01*
X197393Y175075D01*
X198598Y175574D01*
X199632Y176368D01*
X200426Y177402D01*
X200925Y178607D01*
X201096Y179900D01*
X200994Y180667D01*
X201391Y180971D01*
X202107Y180675D01*
X203400Y180505D01*
X204693Y180675D01*
X205898Y181174D01*
X206932Y181968D01*
X207726Y183002D01*
X208225Y184207D01*
X208396Y185500D01*
X208312Y186133D01*
X214640Y192460D01*
X214640Y192460D01*
X214912Y192815D01*
X215121Y193087D01*
X215246Y193389D01*
X215423Y193817D01*
X215526Y194600D01*
Y256747D01*
X216585Y257806D01*
X217047Y257615D01*
Y250547D01*
X226953D01*
Y260453D01*
X219885D01*
X219694Y260915D01*
X221326Y262547D01*
X226953D01*
Y272453D01*
X221326D01*
X220140Y273640D01*
X219513Y274120D01*
X219299Y274209D01*
X218783Y274423D01*
X218000Y274526D01*
X211953D01*
Y276453D01*
X205785D01*
X205594Y276915D01*
X224640Y295960D01*
X224640Y295960D01*
X224848Y296233D01*
X225120Y296587D01*
X225423Y297317D01*
X225526Y298100D01*
X225526Y298100D01*
Y357000D01*
X225464Y357474D01*
X225846Y357974D01*
X244000D01*
X244783Y358077D01*
X245299Y358291D01*
X245513Y358380D01*
X246140Y358860D01*
X258140Y370860D01*
X258621Y371487D01*
X258746Y371789D01*
X258923Y372217D01*
X259026Y373000D01*
Y376305D01*
X259526Y376338D01*
X259675Y375207D01*
X260174Y374002D01*
X260968Y372968D01*
X262002Y372174D01*
X263207Y371675D01*
X264500Y371504D01*
X265793Y371675D01*
X266998Y372174D01*
X268032Y372968D01*
X268826Y374002D01*
X269325Y375207D01*
X269496Y376500D01*
X269444Y376894D01*
X269892Y377116D01*
X271470Y375538D01*
Y366500D01*
X264000D01*
Y356500D01*
Y347500D01*
X265474D01*
Y345000D01*
X264000D01*
Y335000D01*
Y326000D01*
X265474D01*
Y323500D01*
X264000D01*
Y313500D01*
X265000D01*
Y310000D01*
X272000D01*
Y313500D01*
X273000D01*
Y323500D01*
X271526D01*
Y326000D01*
X273000D01*
Y327974D01*
X274999D01*
X275546Y327427D01*
X275457Y326752D01*
X275629Y325447D01*
X276132Y324230D01*
X276934Y323186D01*
X277092Y323065D01*
Y322565D01*
X276934Y322444D01*
X276132Y321400D01*
X275629Y320183D01*
X275457Y318878D01*
X275629Y317573D01*
X276132Y316356D01*
X276934Y315312D01*
X277978Y314510D01*
X279195Y314007D01*
X280500Y313835D01*
X281805Y314007D01*
X283022Y314510D01*
X284066Y315312D01*
X284868Y316356D01*
X285371Y317573D01*
X285543Y318878D01*
X285371Y320183D01*
X284868Y321400D01*
X284066Y322444D01*
X283908Y322565D01*
Y323065D01*
X284066Y323186D01*
X284868Y324230D01*
X285371Y325447D01*
X285543Y326752D01*
X285371Y328057D01*
X284868Y329274D01*
X284066Y330318D01*
X283908Y330439D01*
Y330939D01*
X284066Y331060D01*
X284868Y332104D01*
X285371Y333321D01*
X285543Y334626D01*
X285371Y335931D01*
X284929Y337000D01*
X285168Y337500D01*
X285500D01*
Y347500D01*
X275500D01*
Y337500D01*
X275832D01*
X276071Y337000D01*
X275629Y335931D01*
X275457Y334626D01*
X275486Y334402D01*
X275157Y334026D01*
X273000D01*
Y335000D01*
Y345000D01*
X271526D01*
Y347500D01*
X273000D01*
Y349474D01*
X277000D01*
X277783Y349577D01*
X278299Y349791D01*
X278513Y349880D01*
X279140Y350360D01*
X280327Y351547D01*
X285953D01*
Y361453D01*
X279702D01*
X279401Y361953D01*
X279539Y363000D01*
X279384Y364175D01*
X278931Y365269D01*
X278530Y365791D01*
Y377000D01*
X278410Y377914D01*
X278057Y378765D01*
X277496Y379496D01*
X265394Y391598D01*
X265384Y391675D01*
X264931Y392769D01*
X264209Y393709D01*
X263269Y394431D01*
X262175Y394884D01*
X261000Y395039D01*
X259825Y394884D01*
X258731Y394431D01*
X257791Y393709D01*
X257653Y393530D01*
X253000D01*
Y398500D01*
Y404500D01*
Y410500D01*
Y415382D01*
X253473Y415543D01*
X253504Y415504D01*
X273004Y396004D01*
X273735Y395443D01*
X274586Y395090D01*
X275500Y394970D01*
Y393500D01*
X285500D01*
Y403500D01*
X285168D01*
X284929Y404000D01*
X285371Y405069D01*
X285543Y406374D01*
X285371Y407679D01*
X284868Y408896D01*
X284066Y409940D01*
X283908Y410061D01*
Y410561D01*
X284066Y410682D01*
X284868Y411726D01*
X285371Y412943D01*
X285543Y414248D01*
X285371Y415553D01*
X284868Y416770D01*
X284066Y417814D01*
X283908Y417935D01*
Y418435D01*
X284066Y418556D01*
X284868Y419600D01*
X285371Y420817D01*
X285543Y422122D01*
X285371Y423427D01*
X284868Y424644D01*
X284066Y425688D01*
X283022Y426489D01*
X281805Y426993D01*
X280500Y427165D01*
X279195Y426993D01*
X277978Y426489D01*
X276934Y425688D01*
X276906Y425652D01*
X276340D01*
X275530Y426462D01*
Y436500D01*
X285000D01*
Y446500D01*
X284668D01*
X284429Y447000D01*
X284871Y448069D01*
X285043Y449374D01*
X284871Y450679D01*
X284367Y451896D01*
X283566Y452940D01*
X283408Y453061D01*
Y453561D01*
X283566Y453682D01*
X284367Y454726D01*
X284871Y455943D01*
X285043Y457248D01*
X284871Y458553D01*
X284367Y459770D01*
X283566Y460814D01*
X283408Y460935D01*
Y461435D01*
X283566Y461556D01*
X284367Y462600D01*
X284871Y463817D01*
X285043Y465122D01*
X284871Y466427D01*
X284367Y467644D01*
X283566Y468688D01*
X282522Y469489D01*
X281305Y469993D01*
X280000Y470165D01*
X278695Y469993D01*
X277478Y469489D01*
X276434Y468688D01*
X275633Y467644D01*
X275129Y466427D01*
X274957Y465122D01*
X275129Y463817D01*
X275633Y462600D01*
X276434Y461556D01*
X276592Y461435D01*
Y460935D01*
X276434Y460814D01*
X275633Y459770D01*
X275129Y458553D01*
X274957Y457248D01*
X275129Y455943D01*
X275633Y454726D01*
X276434Y453682D01*
X276592Y453561D01*
Y453061D01*
X276434Y452940D01*
X275633Y451896D01*
X275129Y450679D01*
X274957Y449374D01*
X275129Y448069D01*
X275571Y447000D01*
X275332Y446500D01*
X275000D01*
Y445617D01*
X274527Y445457D01*
X274496Y445496D01*
X261496Y458496D01*
X260765Y459057D01*
X259914Y459410D01*
X259000Y459530D01*
X258176D01*
X257985Y459992D01*
X263496Y465504D01*
X264057Y466235D01*
X264410Y467086D01*
X264530Y468000D01*
Y490500D01*
X264410Y491414D01*
X264057Y492265D01*
X263496Y492996D01*
X262206Y494287D01*
X262300Y495000D01*
X262102Y496501D01*
X261523Y497900D01*
X260601Y499101D01*
X259400Y500023D01*
X258001Y500602D01*
X256500Y500800D01*
X254999Y500602D01*
X253600Y500023D01*
X252399Y499101D01*
X251477Y497900D01*
X250898Y496501D01*
X250700Y495000D01*
X250898Y493499D01*
X251477Y492100D01*
X252399Y490899D01*
X253600Y489977D01*
X254999Y489398D01*
X256500Y489200D01*
X257068Y489275D01*
X257470Y488909D01*
Y480157D01*
X257104Y480033D01*
X256970Y480023D01*
X246996Y489996D01*
X246265Y490557D01*
X245414Y490910D01*
X244500Y491030D01*
X187461D01*
X187022Y491367D01*
X185805Y491871D01*
X184500Y492043D01*
X173029D01*
X172822Y492543D01*
X182253Y501974D01*
X261574D01*
X262399Y500899D01*
X263600Y499977D01*
X264999Y499398D01*
X266500Y499200D01*
X268001Y499398D01*
X269400Y499977D01*
X270601Y500899D01*
X271523Y502100D01*
X272102Y503499D01*
X272300Y505000D01*
X272102Y506501D01*
X271523Y507900D01*
X270601Y509101D01*
X269429Y510000D01*
X269428Y510028D01*
X269760Y510500D01*
X314000D01*
Y1653D01*
D02*
G37*
G36*
X263572Y510028D02*
X263571Y510000D01*
X262399Y509101D01*
X261574Y508026D01*
X181000D01*
X180217Y507923D01*
X179487Y507620D01*
X178860Y507140D01*
X159747Y488026D01*
X157173D01*
X157048Y488526D01*
X158177Y489129D01*
X159440Y490166D01*
X160477Y491430D01*
X161248Y492872D01*
X161723Y494436D01*
X161883Y496063D01*
X161723Y497690D01*
X161248Y499254D01*
X160477Y500696D01*
X159440Y501960D01*
X158177Y502997D01*
X156735Y503768D01*
X155170Y504242D01*
X153543Y504402D01*
X151917Y504242D01*
X150352Y503768D01*
X148910Y502997D01*
X147647Y501960D01*
X146609Y500696D01*
X145839Y499254D01*
X145364Y497690D01*
X145204Y496063D01*
X145364Y494436D01*
X145839Y492872D01*
X146609Y491430D01*
X147647Y490166D01*
X148910Y489129D01*
X150039Y488526D01*
X149914Y488026D01*
X122700D01*
X121917Y487923D01*
X121552Y487772D01*
X121187Y487620D01*
X120560Y487140D01*
X37360Y403940D01*
X36880Y403313D01*
X36791Y403099D01*
X36577Y402583D01*
X36474Y401800D01*
Y240921D01*
X35968Y240532D01*
X35174Y239498D01*
X34675Y238293D01*
X34505Y237000D01*
X34675Y235707D01*
X35174Y234502D01*
X35968Y233468D01*
X37002Y232674D01*
X38207Y232175D01*
X39500Y232004D01*
X40793Y232175D01*
X41998Y232674D01*
X43032Y233468D01*
X43826Y234502D01*
X44325Y235707D01*
X44495Y237000D01*
X44325Y238293D01*
X43826Y239498D01*
X43032Y240532D01*
X42526Y240921D01*
Y400547D01*
X123953Y481974D01*
X159915D01*
X159979Y481842D01*
X160113Y481474D01*
X159629Y480305D01*
X159457Y479000D01*
Y455589D01*
X131934Y428066D01*
X131132Y427022D01*
X130629Y425805D01*
X130457Y424500D01*
Y236089D01*
X122434Y228066D01*
X121633Y227022D01*
X121129Y225805D01*
X120957Y224500D01*
Y139589D01*
X103513Y122145D01*
X102711Y121100D01*
X102208Y119884D01*
X102036Y118579D01*
Y57097D01*
X101567Y56220D01*
X101228Y55101D01*
X101113Y53937D01*
X101228Y52773D01*
X101567Y51654D01*
X102118Y50623D01*
X102860Y49719D01*
X103764Y48977D01*
X104796Y48425D01*
X105915Y48086D01*
X107079Y47971D01*
X116921D01*
X118085Y48086D01*
X119204Y48425D01*
X120236Y48977D01*
X121140Y49719D01*
X121882Y50623D01*
X122433Y51654D01*
X122721Y52605D01*
X123073Y52957D01*
X137411D01*
X173957Y16411D01*
Y10282D01*
X173457Y10182D01*
X173326Y10498D01*
X172532Y11532D01*
X171498Y12326D01*
X170293Y12825D01*
X169000Y12995D01*
X167707Y12825D01*
X166502Y12326D01*
X165468Y11532D01*
X164674Y10498D01*
X164175Y9293D01*
X164005Y8000D01*
X164175Y6707D01*
X164674Y5502D01*
X165468Y4468D01*
X166502Y3674D01*
X166922Y3500D01*
X166822Y3000D01*
X1500D01*
X1000Y510146D01*
X1354Y510500D01*
X263240D01*
X263572Y510028D01*
D02*
G37*
%LPC*%
G36*
X277000Y177953D02*
X273547D01*
Y174500D01*
X277000D01*
Y177953D01*
D02*
G37*
G36*
X297000Y179453D02*
X293547D01*
Y176000D01*
X297000D01*
Y179453D01*
D02*
G37*
G36*
X281453Y177953D02*
X278000D01*
Y174500D01*
X281453D01*
Y177953D01*
D02*
G37*
G36*
X301453Y175000D02*
X298000D01*
Y171547D01*
X301453D01*
Y175000D01*
D02*
G37*
G36*
X281453Y173500D02*
X278000D01*
Y170047D01*
X281453D01*
Y173500D01*
D02*
G37*
G36*
Y132500D02*
X278000D01*
Y129047D01*
X281453D01*
Y132500D01*
D02*
G37*
G36*
X297000Y175000D02*
X293547D01*
Y171547D01*
X297000D01*
Y175000D01*
D02*
G37*
G36*
X261953Y180453D02*
X252047D01*
Y170547D01*
X261953D01*
Y180453D01*
D02*
G37*
G36*
X301453Y179453D02*
X298000D01*
Y176000D01*
X301453D01*
Y179453D01*
D02*
G37*
G36*
X56000Y211098D02*
X54810Y210942D01*
X53701Y210482D01*
X52749Y209752D01*
X52018Y208799D01*
X51558Y207690D01*
X51402Y206500D01*
X51558Y205310D01*
X52018Y204201D01*
X52749Y203249D01*
X53701Y202518D01*
X54810Y202058D01*
X56000Y201902D01*
X57190Y202058D01*
X58299Y202518D01*
X59251Y203249D01*
X59982Y204201D01*
X60442Y205310D01*
X60598Y206500D01*
X60442Y207690D01*
X59982Y208799D01*
X59251Y209752D01*
X58299Y210482D01*
X57190Y210942D01*
X56000Y211098D01*
D02*
G37*
G36*
X94000Y213059D02*
X92720Y212933D01*
X91490Y212560D01*
X90356Y211954D01*
X89362Y211138D01*
X88546Y210144D01*
X87940Y209010D01*
X87567Y207780D01*
X87441Y206500D01*
X87567Y205220D01*
X87940Y203990D01*
X88546Y202856D01*
X89362Y201862D01*
X90356Y201046D01*
X91490Y200440D01*
X92720Y200067D01*
X94000Y199941D01*
X95280Y200067D01*
X96510Y200440D01*
X97644Y201046D01*
X98638Y201862D01*
X99454Y202856D01*
X100060Y203990D01*
X100433Y205220D01*
X100559Y206500D01*
X100433Y207780D01*
X100060Y209010D01*
X99454Y210144D01*
X98638Y211138D01*
X97644Y211954D01*
X96510Y212560D01*
X95280Y212933D01*
X94000Y213059D01*
D02*
G37*
G36*
X160464Y212500D02*
X157500D01*
Y209536D01*
X157914Y209590D01*
X158765Y209943D01*
X159496Y210504D01*
X160057Y211235D01*
X160410Y212086D01*
X160464Y212500D01*
D02*
G37*
G36*
X156500D02*
X153536D01*
X153590Y212086D01*
X153943Y211235D01*
X154504Y210504D01*
X155235Y209943D01*
X156086Y209590D01*
X156500Y209536D01*
Y212500D01*
D02*
G37*
G36*
X277500Y208996D02*
X276207Y208825D01*
X275002Y208326D01*
X273968Y207532D01*
X273174Y206498D01*
X272675Y205293D01*
X272504Y204000D01*
X272675Y202707D01*
X273174Y201502D01*
X273968Y200468D01*
X275002Y199674D01*
X275976Y199271D01*
Y198729D01*
X275002Y198326D01*
X273968Y197532D01*
X273174Y196498D01*
X272675Y195293D01*
X272504Y194000D01*
X272675Y192707D01*
X273174Y191502D01*
X273968Y190468D01*
X275002Y189674D01*
X275976Y189271D01*
Y188729D01*
X275002Y188326D01*
X273968Y187532D01*
X273174Y186498D01*
X272675Y185293D01*
X272504Y184000D01*
X272675Y182707D01*
X273174Y181502D01*
X273968Y180468D01*
X275002Y179674D01*
X276207Y179175D01*
X277500Y179005D01*
X278793Y179175D01*
X279998Y179674D01*
X281032Y180468D01*
X281826Y181502D01*
X282325Y182707D01*
X282495Y184000D01*
X282325Y185293D01*
X281826Y186498D01*
X281032Y187532D01*
X279998Y188326D01*
X279024Y188729D01*
Y189271D01*
X279998Y189674D01*
X281032Y190468D01*
X281826Y191502D01*
X282325Y192707D01*
X282495Y194000D01*
X282325Y195293D01*
X281826Y196498D01*
X281032Y197532D01*
X279998Y198326D01*
X279024Y198729D01*
Y199271D01*
X279998Y199674D01*
X281032Y200468D01*
X281826Y201502D01*
X282325Y202707D01*
X282495Y204000D01*
X282325Y205293D01*
X281826Y206498D01*
X281032Y207532D01*
X279998Y208326D01*
X278793Y208825D01*
X277500Y208996D01*
D02*
G37*
G36*
X239953Y197453D02*
X230047D01*
Y191826D01*
X215433Y177212D01*
X214800Y177295D01*
X213507Y177125D01*
X212302Y176626D01*
X211268Y175832D01*
X210474Y174798D01*
X209975Y173593D01*
X209805Y172300D01*
X209975Y171007D01*
X210474Y169802D01*
X211268Y168768D01*
X212302Y167974D01*
X213507Y167475D01*
X214800Y167305D01*
X216093Y167475D01*
X217298Y167974D01*
X218332Y168768D01*
X219126Y169802D01*
X219625Y171007D01*
X219795Y172300D01*
X219712Y172933D01*
X234327Y187547D01*
X239953D01*
Y197453D01*
D02*
G37*
G36*
X12500Y213059D02*
X11220Y212933D01*
X9990Y212560D01*
X8856Y211954D01*
X7862Y211138D01*
X7046Y210144D01*
X6440Y209010D01*
X6067Y207780D01*
X5941Y206500D01*
X6067Y205220D01*
X6440Y203990D01*
X7046Y202856D01*
X7862Y201862D01*
X8856Y201046D01*
X9990Y200440D01*
X11220Y200067D01*
X12500Y199941D01*
X13780Y200067D01*
X15010Y200440D01*
X16144Y201046D01*
X17138Y201862D01*
X17954Y202856D01*
X18560Y203990D01*
X18933Y205220D01*
X19059Y206500D01*
X18933Y207780D01*
X18560Y209010D01*
X17954Y210144D01*
X17138Y211138D01*
X16144Y211954D01*
X15010Y212560D01*
X13780Y212933D01*
X12500Y213059D01*
D02*
G37*
G36*
X115500Y211039D02*
X114325Y210884D01*
X113231Y210431D01*
X112291Y209709D01*
X111569Y208769D01*
X111116Y207675D01*
X110961Y206500D01*
X110991Y206271D01*
X98747Y194026D01*
X71253D01*
X68912Y196367D01*
X68995Y197000D01*
X68825Y198293D01*
X68326Y199498D01*
X67532Y200532D01*
X66498Y201326D01*
X65293Y201825D01*
X64000Y201995D01*
X62707Y201825D01*
X61502Y201326D01*
X60468Y200532D01*
X59674Y199498D01*
X59175Y198293D01*
X59004Y197000D01*
X59175Y195707D01*
X59674Y194502D01*
X60468Y193468D01*
X61502Y192674D01*
X62707Y192175D01*
X64000Y192005D01*
X64633Y192088D01*
X67860Y188860D01*
X68487Y188380D01*
X68701Y188291D01*
X69217Y188077D01*
X70000Y187974D01*
X100000D01*
X100783Y188077D01*
X101299Y188291D01*
X101513Y188380D01*
X102140Y188860D01*
X115271Y201991D01*
X115500Y201961D01*
X116675Y202116D01*
X117769Y202569D01*
X118709Y203291D01*
X119431Y204231D01*
X119884Y205325D01*
X120039Y206500D01*
X119884Y207675D01*
X119431Y208769D01*
X118709Y209709D01*
X117769Y210431D01*
X116675Y210884D01*
X115500Y211039D01*
D02*
G37*
G36*
X180283Y134186D02*
X179120Y134072D01*
X178000Y133732D01*
X176969Y133181D01*
X176065Y132439D01*
X175323Y131535D01*
X174772Y130503D01*
X174432Y129384D01*
X174318Y128220D01*
X174432Y127057D01*
X174772Y125937D01*
X175323Y124906D01*
X176065Y124002D01*
X176969Y123260D01*
X178000Y122709D01*
X179120Y122369D01*
X180283Y122255D01*
X181447Y122369D01*
X182566Y122709D01*
X183598Y123260D01*
X184502Y124002D01*
X185244Y124906D01*
X185795Y125937D01*
X186135Y127057D01*
X186249Y128220D01*
X186135Y129384D01*
X185795Y130503D01*
X185244Y131535D01*
X184502Y132439D01*
X183598Y133181D01*
X182566Y133732D01*
X181447Y134072D01*
X180283Y134186D01*
D02*
G37*
G36*
X115937Y35493D02*
X108063D01*
X106899Y35379D01*
X105780Y35039D01*
X104749Y34488D01*
X103845Y33746D01*
X103103Y32842D01*
X102551Y31811D01*
X102212Y30691D01*
X102097Y29528D01*
X102212Y28364D01*
X102551Y27245D01*
X103103Y26213D01*
X103845Y25309D01*
X104749Y24567D01*
X105780Y24016D01*
X106899Y23676D01*
X108063Y23562D01*
X115937D01*
X117101Y23676D01*
X118220Y24016D01*
X119251Y24567D01*
X120155Y25309D01*
X120897Y26213D01*
X121449Y27245D01*
X121788Y28364D01*
X121903Y29528D01*
X121788Y30691D01*
X121449Y31811D01*
X120897Y32842D01*
X120155Y33746D01*
X119251Y34488D01*
X118220Y35039D01*
X117101Y35379D01*
X115937Y35493D01*
D02*
G37*
G36*
X43953Y60953D02*
X34047D01*
Y51047D01*
X36936D01*
X37036Y50547D01*
X36502Y50326D01*
X35468Y49532D01*
X34674Y48498D01*
X34175Y47293D01*
X34005Y46000D01*
X34175Y44707D01*
X34674Y43502D01*
X35468Y42468D01*
X36502Y41674D01*
X37476Y41271D01*
Y40729D01*
X36502Y40326D01*
X35468Y39532D01*
X34674Y38498D01*
X34175Y37293D01*
X34005Y36000D01*
X34175Y34707D01*
X34674Y33502D01*
X35468Y32468D01*
X36502Y31674D01*
X37476Y31271D01*
Y30729D01*
X36502Y30326D01*
X35468Y29532D01*
X34674Y28498D01*
X34175Y27293D01*
X34005Y26000D01*
X34175Y24707D01*
X34674Y23502D01*
X35468Y22468D01*
X36502Y21674D01*
X37707Y21175D01*
X39000Y21004D01*
X40293Y21175D01*
X41498Y21674D01*
X42532Y22468D01*
X43326Y23502D01*
X43825Y24707D01*
X43995Y26000D01*
X43825Y27293D01*
X43326Y28498D01*
X42532Y29532D01*
X41498Y30326D01*
X40524Y30729D01*
Y31271D01*
X41498Y31674D01*
X42532Y32468D01*
X43326Y33502D01*
X43825Y34707D01*
X43995Y36000D01*
X43825Y37293D01*
X43326Y38498D01*
X42532Y39532D01*
X41498Y40326D01*
X40524Y40729D01*
Y41271D01*
X41498Y41674D01*
X42532Y42468D01*
X43326Y43502D01*
X43825Y44707D01*
X43995Y46000D01*
X43825Y47293D01*
X43326Y48498D01*
X42532Y49532D01*
X41498Y50326D01*
X40964Y50547D01*
X41064Y51047D01*
X43953D01*
Y60953D01*
D02*
G37*
G36*
X20953Y45953D02*
X11047D01*
Y36047D01*
X20953D01*
Y45953D01*
D02*
G37*
G36*
X131685Y51241D02*
X130521Y51127D01*
X129402Y50787D01*
X128371Y50236D01*
X127467Y49494D01*
X126725Y48590D01*
X126173Y47559D01*
X125834Y46439D01*
X125719Y45276D01*
Y37402D01*
X125834Y36238D01*
X126173Y35119D01*
X126725Y34087D01*
X127467Y33183D01*
X128371Y32441D01*
X129402Y31890D01*
X130521Y31550D01*
X131685Y31436D01*
X132849Y31550D01*
X133968Y31890D01*
X134999Y32441D01*
X135903Y33183D01*
X136645Y34087D01*
X137197Y35119D01*
X137536Y36238D01*
X137651Y37402D01*
Y45276D01*
X137536Y46439D01*
X137197Y47559D01*
X136645Y48590D01*
X135903Y49494D01*
X134999Y50236D01*
X133968Y50787D01*
X132849Y51127D01*
X131685Y51241D01*
D02*
G37*
G36*
X68000Y64133D02*
X65833Y63963D01*
X63719Y63455D01*
X61711Y62623D01*
X59857Y61488D01*
X58204Y60076D01*
X56792Y58423D01*
X55656Y56569D01*
X54824Y54561D01*
X54317Y52447D01*
X54146Y50280D01*
X54317Y48112D01*
X54824Y45999D01*
X55656Y43990D01*
X56792Y42137D01*
X58204Y40483D01*
X59857Y39072D01*
X61711Y37936D01*
X63719Y37104D01*
X64611Y36890D01*
Y36390D01*
X63719Y36176D01*
X61711Y35344D01*
X59857Y34208D01*
X58204Y32796D01*
X56792Y31143D01*
X55656Y29289D01*
X54824Y27281D01*
X54317Y25167D01*
X54146Y23000D01*
X54317Y20833D01*
X54824Y18719D01*
X55656Y16711D01*
X56792Y14857D01*
X58204Y13204D01*
X59857Y11792D01*
X61711Y10656D01*
X63719Y9824D01*
X65833Y9317D01*
X68000Y9146D01*
X70167Y9317D01*
X72281Y9824D01*
X74290Y10656D01*
X76143Y11792D01*
X77796Y13204D01*
X79208Y14857D01*
X80344Y16711D01*
X81176Y18719D01*
X81683Y20833D01*
X81854Y23000D01*
X81683Y25167D01*
X81176Y27281D01*
X80344Y29289D01*
X79208Y31143D01*
X77796Y32796D01*
X76143Y34208D01*
X74290Y35344D01*
X72281Y36176D01*
X71389Y36390D01*
Y36890D01*
X72281Y37104D01*
X74290Y37936D01*
X76143Y39072D01*
X77796Y40483D01*
X79208Y42137D01*
X80344Y43990D01*
X81176Y45999D01*
X81683Y48112D01*
X81854Y50280D01*
X81683Y52447D01*
X81176Y54561D01*
X80344Y56569D01*
X79208Y58423D01*
X77796Y60076D01*
X76143Y61488D01*
X74290Y62623D01*
X72281Y63455D01*
X70167Y63963D01*
X68000Y64133D01*
D02*
G37*
G36*
X15748Y24087D02*
X14121Y23927D01*
X12557Y23453D01*
X11115Y22682D01*
X9851Y21645D01*
X8814Y20381D01*
X8043Y18939D01*
X7569Y17375D01*
X7409Y15748D01*
X7569Y14121D01*
X8043Y12557D01*
X8814Y11115D01*
X9851Y9851D01*
X11115Y8814D01*
X12557Y8043D01*
X14121Y7569D01*
X15748Y7409D01*
X17375Y7569D01*
X18939Y8043D01*
X20381Y8814D01*
X21645Y9851D01*
X22682Y11115D01*
X23453Y12557D01*
X23927Y14121D01*
X24087Y15748D01*
X23927Y17375D01*
X23453Y18939D01*
X22682Y20381D01*
X21645Y21645D01*
X20381Y22682D01*
X18939Y23453D01*
X17375Y23927D01*
X15748Y24087D01*
D02*
G37*
G36*
X184708Y380929D02*
X184402D01*
X184347Y380834D01*
X184286Y380746D01*
X184214Y380657D01*
X184147Y380579D01*
X184081Y380512D01*
X184030Y380457D01*
X184008Y380440D01*
X183992Y380424D01*
X183986Y380418D01*
X183981Y380413D01*
X183864Y380318D01*
X183747Y380229D01*
X183636Y380152D01*
X183526Y380091D01*
X183431Y380035D01*
X183392Y380013D01*
X183359Y379996D01*
X183331Y379980D01*
X183309Y379974D01*
X183298Y379963D01*
X183292D01*
Y379508D01*
X183376Y379541D01*
X183459Y379580D01*
X183542Y379619D01*
X183620Y379658D01*
X183686Y379691D01*
X183742Y379719D01*
X183775Y379741D01*
X183781Y379747D01*
X183786D01*
X183886Y379807D01*
X183975Y379869D01*
X184053Y379924D01*
X184114Y379974D01*
X184169Y380013D01*
X184203Y380046D01*
X184230Y380068D01*
X184236Y380074D01*
Y377071D01*
X184708D01*
Y380929D01*
D02*
G37*
G36*
X299213Y24087D02*
X297586Y23927D01*
X296021Y23453D01*
X294580Y22682D01*
X293316Y21645D01*
X292279Y20381D01*
X291508Y18939D01*
X291034Y17375D01*
X290873Y15748D01*
X291034Y14121D01*
X291508Y12557D01*
X292279Y11115D01*
X293316Y9851D01*
X294580Y8814D01*
X296021Y8043D01*
X297586Y7569D01*
X299213Y7409D01*
X300839Y7569D01*
X302404Y8043D01*
X303846Y8814D01*
X305109Y9851D01*
X306147Y11115D01*
X306917Y12557D01*
X307392Y14121D01*
X307552Y15748D01*
X307392Y17375D01*
X306917Y18939D01*
X306147Y20381D01*
X305109Y21645D01*
X303846Y22682D01*
X302404Y23453D01*
X300839Y23927D01*
X299213Y24087D01*
D02*
G37*
G36*
X153543D02*
X151917Y23927D01*
X150352Y23453D01*
X148910Y22682D01*
X147647Y21645D01*
X146609Y20381D01*
X145839Y18939D01*
X145364Y17375D01*
X145204Y15748D01*
X145364Y14121D01*
X145839Y12557D01*
X146609Y11115D01*
X147647Y9851D01*
X148910Y8814D01*
X150352Y8043D01*
X151917Y7569D01*
X153543Y7409D01*
X155170Y7569D01*
X156735Y8043D01*
X158177Y8814D01*
X159440Y9851D01*
X160477Y11115D01*
X161248Y12557D01*
X161723Y14121D01*
X161883Y15748D01*
X161723Y17375D01*
X161248Y18939D01*
X160477Y20381D01*
X159440Y21645D01*
X158177Y22682D01*
X156735Y23453D01*
X155170Y23927D01*
X153543Y24087D01*
D02*
G37*
G36*
X209811Y120407D02*
X208647Y120292D01*
X207528Y119953D01*
X206497Y119401D01*
X205593Y118659D01*
X204851Y117755D01*
X204299Y116724D01*
X203960Y115605D01*
X203845Y114441D01*
X203960Y113277D01*
X204299Y112158D01*
X204851Y111127D01*
X205593Y110223D01*
X206497Y109481D01*
X207528Y108929D01*
X208647Y108590D01*
X209811Y108475D01*
X210975Y108590D01*
X212094Y108929D01*
X213125Y109481D01*
X213329Y109648D01*
X213791Y109457D01*
X213803Y109340D01*
X214142Y108221D01*
X214693Y107190D01*
X215435Y106286D01*
X216339Y105544D01*
X217371Y104992D01*
X218490Y104653D01*
X219654Y104538D01*
X220817Y104653D01*
X221937Y104992D01*
X222968Y105544D01*
X223872Y106286D01*
X224614Y107190D01*
X225165Y108221D01*
X225505Y109340D01*
X225619Y110504D01*
X225505Y111668D01*
X225165Y112787D01*
X224614Y113818D01*
X223872Y114722D01*
X222968Y115464D01*
X221937Y116016D01*
X220817Y116355D01*
X219654Y116470D01*
X218490Y116355D01*
X217371Y116016D01*
X216339Y115464D01*
X216136Y115297D01*
X215674Y115489D01*
X215662Y115605D01*
X215323Y116724D01*
X214771Y117755D01*
X214029Y118659D01*
X213125Y119401D01*
X212094Y119953D01*
X210975Y120292D01*
X209811Y120407D01*
D02*
G37*
G36*
X94000Y102035D02*
X92720Y101909D01*
X91490Y101536D01*
X90356Y100930D01*
X89362Y100114D01*
X88546Y99120D01*
X87940Y97987D01*
X87567Y96756D01*
X87441Y95476D01*
X87567Y94197D01*
X87940Y92966D01*
X88546Y91832D01*
X89362Y90838D01*
X90356Y90023D01*
X91490Y89416D01*
X92720Y89043D01*
X94000Y88917D01*
X95280Y89043D01*
X96510Y89416D01*
X97644Y90023D01*
X98638Y90838D01*
X99454Y91832D01*
X100060Y92966D01*
X100433Y94197D01*
X100559Y95476D01*
X100433Y96756D01*
X100060Y97987D01*
X99454Y99120D01*
X98638Y100114D01*
X97644Y100930D01*
X96510Y101536D01*
X95280Y101909D01*
X94000Y102035D01*
D02*
G37*
G36*
X53000Y183036D02*
X49713Y182875D01*
X46457Y182392D01*
X43265Y181592D01*
X40166Y180484D01*
X37191Y179077D01*
X34368Y177384D01*
X31725Y175424D01*
X29286Y173214D01*
X27076Y170775D01*
X25115Y168132D01*
X23424Y165309D01*
X22016Y162334D01*
X20908Y159235D01*
X20108Y156043D01*
X19625Y152787D01*
X19464Y149500D01*
X19625Y146213D01*
X20108Y142957D01*
X20908Y139765D01*
X22016Y136666D01*
X23424Y133691D01*
X25115Y130868D01*
X27076Y128225D01*
X29286Y125786D01*
X31725Y123576D01*
X34368Y121616D01*
X37191Y119923D01*
X40166Y118516D01*
X43265Y117408D01*
X46457Y116608D01*
X49713Y116125D01*
X53000Y115963D01*
X56287Y116125D01*
X59543Y116608D01*
X62735Y117408D01*
X65834Y118516D01*
X68809Y119923D01*
X71632Y121616D01*
X74275Y123576D01*
X76714Y125786D01*
X78924Y128225D01*
X80885Y130868D01*
X82577Y133691D01*
X83984Y136666D01*
X85092Y139765D01*
X85892Y142957D01*
X86375Y146213D01*
X86537Y149500D01*
X86375Y152787D01*
X85892Y156043D01*
X85092Y159235D01*
X83984Y162334D01*
X82577Y165309D01*
X80885Y168132D01*
X78924Y170775D01*
X76714Y173214D01*
X74275Y175424D01*
X71632Y177384D01*
X68809Y179077D01*
X65834Y180484D01*
X62735Y181592D01*
X59543Y182392D01*
X56287Y182875D01*
X53000Y183036D01*
D02*
G37*
G36*
X282453Y121953D02*
X272547D01*
Y112047D01*
X282453D01*
Y121953D01*
D02*
G37*
G36*
X12500Y102035D02*
X11220Y101909D01*
X9990Y101536D01*
X8856Y100930D01*
X7862Y100114D01*
X7046Y99120D01*
X6440Y97987D01*
X6067Y96756D01*
X5941Y95476D01*
X6067Y94197D01*
X6440Y92966D01*
X7046Y91832D01*
X7862Y90838D01*
X8856Y90023D01*
X9990Y89416D01*
X11220Y89043D01*
X12500Y88917D01*
X13780Y89043D01*
X15010Y89416D01*
X16144Y90023D01*
X17138Y90838D01*
X17954Y91832D01*
X18560Y92966D01*
X18933Y94197D01*
X19059Y95476D01*
X18933Y96756D01*
X18560Y97987D01*
X17954Y99120D01*
X17138Y100114D01*
X16144Y100930D01*
X15010Y101536D01*
X13780Y101909D01*
X12500Y102035D01*
D02*
G37*
G36*
X205000Y89000D02*
X202000D01*
Y85500D01*
X205000D01*
Y89000D01*
D02*
G37*
G36*
X129453Y74953D02*
X119547D01*
Y65047D01*
X129453D01*
Y74953D01*
D02*
G37*
G36*
X264000Y89000D02*
X261000D01*
Y85500D01*
X264000D01*
Y89000D01*
D02*
G37*
G36*
X260000D02*
X257000D01*
Y85500D01*
X260000D01*
Y89000D01*
D02*
G37*
G36*
X153543Y232749D02*
X151917Y232589D01*
X150352Y232114D01*
X148910Y231343D01*
X147647Y230306D01*
X146609Y229043D01*
X145839Y227601D01*
X145364Y226036D01*
X145204Y224409D01*
X145364Y222782D01*
X145839Y221218D01*
X146609Y219776D01*
X147647Y218513D01*
X148910Y217476D01*
X150352Y216705D01*
X151917Y216230D01*
X153543Y216070D01*
X154561Y216170D01*
X154752Y215687D01*
X154504Y215496D01*
X153943Y214765D01*
X153590Y213914D01*
X153536Y213500D01*
X160464D01*
X160410Y213914D01*
X160057Y214765D01*
X159496Y215496D01*
X158765Y216057D01*
X157914Y216410D01*
X157376Y216481D01*
X157282Y216997D01*
X158177Y217476D01*
X159440Y218513D01*
X160477Y219776D01*
X161248Y221218D01*
X161723Y222782D01*
X161883Y224409D01*
X161723Y226036D01*
X161248Y227601D01*
X160477Y229043D01*
X159440Y230306D01*
X158177Y231343D01*
X156735Y232114D01*
X155170Y232589D01*
X153543Y232749D01*
D02*
G37*
G36*
X28300Y266421D02*
Y263000D01*
X31721D01*
X31651Y263532D01*
X31253Y264493D01*
X30619Y265319D01*
X29793Y265953D01*
X28832Y266351D01*
X28300Y266421D01*
D02*
G37*
G36*
X27300D02*
X26768Y266351D01*
X25807Y265953D01*
X24981Y265319D01*
X24347Y264493D01*
X23949Y263532D01*
X23879Y263000D01*
X27300D01*
Y266421D01*
D02*
G37*
G36*
X235921Y267000D02*
X232500D01*
Y263579D01*
X233032Y263649D01*
X233993Y264047D01*
X234819Y264681D01*
X235453Y265507D01*
X235851Y266468D01*
X235921Y267000D01*
D02*
G37*
G36*
X231500D02*
X228079D01*
X228149Y266468D01*
X228547Y265507D01*
X229181Y264681D01*
X230007Y264047D01*
X230968Y263649D01*
X231500Y263579D01*
Y267000D01*
D02*
G37*
G36*
X31721Y262000D02*
X28300D01*
Y258579D01*
X28832Y258649D01*
X29793Y259047D01*
X30619Y259681D01*
X31253Y260507D01*
X31651Y261468D01*
X31721Y262000D01*
D02*
G37*
G36*
X231500Y259421D02*
X230968Y259351D01*
X230007Y258953D01*
X229181Y258319D01*
X228547Y257493D01*
X228149Y256532D01*
X228079Y256000D01*
X231500D01*
Y259421D01*
D02*
G37*
G36*
X235921Y255000D02*
X232500D01*
Y251579D01*
X233032Y251649D01*
X233993Y252047D01*
X234819Y252681D01*
X235453Y253507D01*
X235851Y254468D01*
X235921Y255000D01*
D02*
G37*
G36*
X27300Y262000D02*
X23879D01*
X23949Y261468D01*
X24347Y260507D01*
X24981Y259681D01*
X25807Y259047D01*
X26768Y258649D01*
X27300Y258579D01*
Y262000D01*
D02*
G37*
G36*
X232500Y259421D02*
Y256000D01*
X235921D01*
X235851Y256532D01*
X235453Y257493D01*
X234819Y258319D01*
X233993Y258953D01*
X233032Y259351D01*
X232500Y259421D01*
D02*
G37*
G36*
X231500Y271421D02*
X230968Y271351D01*
X230007Y270953D01*
X229181Y270319D01*
X228547Y269493D01*
X228149Y268532D01*
X228079Y268000D01*
X231500D01*
Y271421D01*
D02*
G37*
G36*
X272000Y309000D02*
X269000D01*
Y305500D01*
X272000D01*
Y309000D01*
D02*
G37*
G36*
X268000D02*
X265000D01*
Y305500D01*
X268000D01*
Y309000D01*
D02*
G37*
G36*
X299213Y504402D02*
X297586Y504242D01*
X296021Y503768D01*
X294580Y502997D01*
X293316Y501960D01*
X292279Y500696D01*
X291508Y499254D01*
X291034Y497690D01*
X290873Y496063D01*
X291034Y494436D01*
X291508Y492872D01*
X292279Y491430D01*
X293316Y490166D01*
X294580Y489129D01*
X296021Y488358D01*
X297586Y487884D01*
X299213Y487724D01*
X300839Y487884D01*
X302404Y488358D01*
X303846Y489129D01*
X305109Y490166D01*
X306147Y491430D01*
X306917Y492872D01*
X307392Y494436D01*
X307552Y496063D01*
X307392Y497690D01*
X306917Y499254D01*
X306147Y500696D01*
X305109Y501960D01*
X303846Y502997D01*
X302404Y503768D01*
X300839Y504242D01*
X299213Y504402D01*
D02*
G37*
G36*
X258453Y358953D02*
X248547D01*
Y349047D01*
X258453D01*
Y358953D01*
D02*
G37*
G36*
X238017Y285000D02*
X234000D01*
Y280983D01*
X234686Y281074D01*
X235791Y281531D01*
X236740Y282260D01*
X237469Y283209D01*
X237926Y284314D01*
X238017Y285000D01*
D02*
G37*
G36*
X285500Y303500D02*
X275500D01*
Y293500D01*
X275832D01*
X276071Y293000D01*
X275629Y291931D01*
X275457Y290626D01*
X275629Y289321D01*
X276132Y288104D01*
X276934Y287060D01*
X277092Y286939D01*
Y286439D01*
X276934Y286318D01*
X276132Y285274D01*
X275629Y284057D01*
X275457Y282752D01*
X275629Y281447D01*
X276132Y280230D01*
X276934Y279186D01*
X277092Y279065D01*
Y278565D01*
X276934Y278444D01*
X276132Y277400D01*
X275629Y276183D01*
X275457Y274878D01*
X275629Y273573D01*
X276132Y272356D01*
X276934Y271312D01*
X277978Y270511D01*
X279195Y270007D01*
X280500Y269835D01*
X281805Y270007D01*
X283022Y270511D01*
X284066Y271312D01*
X284868Y272356D01*
X285371Y273573D01*
X285543Y274878D01*
X285371Y276183D01*
X284868Y277400D01*
X284066Y278444D01*
X283908Y278565D01*
Y279065D01*
X284066Y279186D01*
X284868Y280230D01*
X285371Y281447D01*
X285543Y282752D01*
X285371Y284057D01*
X284868Y285274D01*
X284066Y286318D01*
X283908Y286439D01*
Y286939D01*
X284066Y287060D01*
X284868Y288104D01*
X285371Y289321D01*
X285543Y290626D01*
X285371Y291931D01*
X284929Y293000D01*
X285168Y293500D01*
X285500D01*
Y303500D01*
D02*
G37*
G36*
X232500Y271421D02*
Y268000D01*
X235921D01*
X235851Y268532D01*
X235453Y269493D01*
X234819Y270319D01*
X233993Y270953D01*
X233032Y271351D01*
X232500Y271421D01*
D02*
G37*
G36*
X233000Y285000D02*
X228983D01*
X229074Y284314D01*
X229531Y283209D01*
X230260Y282260D01*
X231209Y281531D01*
X232314Y281074D01*
X233000Y280983D01*
Y285000D01*
D02*
G37*
G36*
X235000Y349539D02*
X233825Y349384D01*
X232731Y348931D01*
X231791Y348209D01*
X231069Y347269D01*
X230616Y346175D01*
X230461Y345000D01*
X230616Y343825D01*
X231069Y342731D01*
X231791Y341791D01*
X232258Y341432D01*
X232118Y340909D01*
X232053Y340901D01*
X230704Y340342D01*
X229546Y339454D01*
X228658Y338296D01*
X228099Y336947D01*
X227909Y335500D01*
X228099Y334053D01*
X228658Y332704D01*
X229546Y331546D01*
X230514Y330804D01*
X230548Y330722D01*
Y330278D01*
X230514Y330196D01*
X229546Y329453D01*
X228658Y328296D01*
X228099Y326947D01*
X227909Y325500D01*
X228099Y324053D01*
X228658Y322704D01*
X229546Y321547D01*
X230514Y320804D01*
X230548Y320722D01*
Y320278D01*
X230514Y320196D01*
X229546Y319454D01*
X228658Y318296D01*
X228099Y316947D01*
X227909Y315500D01*
X228099Y314053D01*
X228658Y312704D01*
X229546Y311546D01*
X230514Y310804D01*
X230548Y310722D01*
Y310278D01*
X230514Y310196D01*
X229546Y309454D01*
X228658Y308296D01*
X228099Y306947D01*
X227909Y305500D01*
X228099Y304053D01*
X228658Y302704D01*
X229546Y301547D01*
X230514Y300804D01*
X230548Y300722D01*
Y300278D01*
X230514Y300196D01*
X229546Y299453D01*
X228658Y298296D01*
X228099Y296947D01*
X227909Y295500D01*
X228099Y294053D01*
X228658Y292704D01*
X229546Y291547D01*
X230704Y290658D01*
X231739Y290229D01*
Y289688D01*
X231209Y289469D01*
X230260Y288740D01*
X229531Y287791D01*
X229074Y286686D01*
X228983Y286000D01*
X238017D01*
X237926Y286686D01*
X237469Y287791D01*
X236740Y288740D01*
X235791Y289469D01*
X235261Y289688D01*
Y290229D01*
X236296Y290658D01*
X237454Y291547D01*
X238342Y292704D01*
X238901Y294053D01*
X239091Y295500D01*
X238901Y296947D01*
X238342Y298296D01*
X237454Y299453D01*
X236486Y300196D01*
X236452Y300278D01*
Y300722D01*
X236486Y300804D01*
X237454Y301547D01*
X238342Y302704D01*
X238901Y304053D01*
X239091Y305500D01*
X238901Y306947D01*
X238342Y308296D01*
X237454Y309454D01*
X236486Y310196D01*
X236452Y310278D01*
Y310722D01*
X236486Y310804D01*
X237454Y311546D01*
X238342Y312704D01*
X238901Y314053D01*
X239091Y315500D01*
X238901Y316947D01*
X238342Y318296D01*
X237454Y319454D01*
X236486Y320196D01*
X236452Y320278D01*
Y320722D01*
X236486Y320804D01*
X237454Y321547D01*
X238342Y322704D01*
X238901Y324053D01*
X239091Y325500D01*
X238901Y326947D01*
X238342Y328296D01*
X237454Y329453D01*
X236486Y330196D01*
X236452Y330278D01*
Y330722D01*
X236486Y330804D01*
X237454Y331546D01*
X238342Y332704D01*
X238901Y334053D01*
X239091Y335500D01*
X238901Y336947D01*
X238342Y338296D01*
X237454Y339454D01*
X236480Y340201D01*
X236521Y340749D01*
X236528Y340762D01*
X237269Y341069D01*
X238209Y341791D01*
X238350Y341974D01*
X239247D01*
X244474Y336747D01*
Y273000D01*
X244561Y272341D01*
X244309Y272071D01*
X244136Y271976D01*
X243293Y272325D01*
X242000Y272496D01*
X240707Y272325D01*
X239502Y271826D01*
X238468Y271032D01*
X237674Y269998D01*
X237175Y268793D01*
X237004Y267500D01*
X237175Y266207D01*
X237674Y265002D01*
X238468Y263968D01*
X239502Y263174D01*
X240707Y262675D01*
X242000Y262505D01*
X243293Y262675D01*
X244498Y263174D01*
X245532Y263968D01*
X246326Y265002D01*
X246825Y266207D01*
X246995Y267500D01*
X246841Y268672D01*
X247264Y268956D01*
X254491Y261729D01*
X254461Y261500D01*
X254616Y260325D01*
X255069Y259231D01*
X255791Y258291D01*
X256731Y257569D01*
X257825Y257116D01*
X259000Y256961D01*
X260175Y257116D01*
X261269Y257569D01*
X262209Y258291D01*
X262931Y259231D01*
X263384Y260325D01*
X263539Y261500D01*
X263384Y262675D01*
X262931Y263769D01*
X262209Y264709D01*
X261269Y265431D01*
X260175Y265884D01*
X259000Y266039D01*
X258771Y266009D01*
X250526Y274253D01*
Y338000D01*
X250423Y338783D01*
X250120Y339513D01*
X249912Y339785D01*
X249640Y340140D01*
X249640Y340140D01*
X242640Y347140D01*
X242013Y347621D01*
X241799Y347709D01*
X241283Y347923D01*
X240500Y348026D01*
X238350D01*
X238209Y348209D01*
X237269Y348931D01*
X236175Y349384D01*
X235000Y349539D01*
D02*
G37*
G36*
X272500Y240500D02*
X269047D01*
Y237047D01*
X272500D01*
Y240500D01*
D02*
G37*
G36*
X263000Y245995D02*
X261707Y245825D01*
X260502Y245326D01*
X259468Y244532D01*
X258674Y243498D01*
X258175Y242293D01*
X258004Y241000D01*
X258175Y239707D01*
X258674Y238502D01*
X259468Y237468D01*
X260502Y236674D01*
X261707Y236175D01*
X263000Y236004D01*
X264293Y236175D01*
X265498Y236674D01*
X266532Y237468D01*
X267326Y238502D01*
X267825Y239707D01*
X267996Y241000D01*
X267825Y242293D01*
X267326Y243498D01*
X266532Y244532D01*
X265498Y245326D01*
X264293Y245825D01*
X263000Y245995D01*
D02*
G37*
G36*
X242000Y248496D02*
X240707Y248325D01*
X239502Y247826D01*
X238468Y247032D01*
X237674Y245998D01*
X237175Y244793D01*
X237004Y243500D01*
X237175Y242207D01*
X237674Y241002D01*
X238468Y239968D01*
X239502Y239174D01*
X240707Y238675D01*
X242000Y238505D01*
X243293Y238675D01*
X244498Y239174D01*
X245532Y239968D01*
X246326Y241002D01*
X246825Y242207D01*
X246995Y243500D01*
X246825Y244793D01*
X246326Y245998D01*
X245532Y247032D01*
X244498Y247826D01*
X243293Y248325D01*
X242000Y248496D01*
D02*
G37*
G36*
X281000Y266039D02*
X279825Y265884D01*
X278731Y265431D01*
X277791Y264709D01*
X277069Y263769D01*
X276616Y262675D01*
X276461Y261500D01*
X276616Y260325D01*
X277069Y259231D01*
X277791Y258291D01*
X277974Y258150D01*
Y237850D01*
X277791Y237709D01*
X277453Y237269D01*
X276953Y237439D01*
Y240500D01*
X273500D01*
Y237047D01*
X276665D01*
X276713Y237014D01*
X276982Y236560D01*
X276616Y235675D01*
X276461Y234500D01*
X276616Y233325D01*
X277069Y232231D01*
X277791Y231291D01*
X278731Y230569D01*
X279825Y230116D01*
X281000Y229961D01*
X282175Y230116D01*
X283269Y230569D01*
X284209Y231291D01*
X284931Y232231D01*
X285384Y233325D01*
X285539Y234500D01*
X285384Y235675D01*
X284931Y236769D01*
X284209Y237709D01*
X284026Y237850D01*
Y258150D01*
X284209Y258291D01*
X284931Y259231D01*
X285384Y260325D01*
X285539Y261500D01*
X285384Y262675D01*
X284931Y263769D01*
X284209Y264709D01*
X283269Y265431D01*
X282175Y265884D01*
X281000Y266039D01*
D02*
G37*
G36*
X92300Y355696D02*
X91007Y355525D01*
X89802Y355026D01*
X88768Y354232D01*
X87974Y353198D01*
X87475Y351993D01*
X87305Y350700D01*
X87475Y349407D01*
X87974Y348202D01*
X88768Y347168D01*
X89274Y346779D01*
Y254200D01*
X89377Y253417D01*
X89591Y252901D01*
X89679Y252687D01*
X90160Y252060D01*
X108547Y233673D01*
X108618Y233141D01*
X108523Y233058D01*
X108145Y232901D01*
X107426Y233453D01*
X106464Y233851D01*
X105932Y233921D01*
Y230500D01*
X109517D01*
X109840Y230634D01*
X109968Y230468D01*
X111002Y229674D01*
X112207Y229175D01*
X113500Y229005D01*
X114793Y229175D01*
X115998Y229674D01*
X117032Y230468D01*
X117826Y231502D01*
X118325Y232707D01*
X118496Y234000D01*
X118325Y235293D01*
X117826Y236498D01*
X117032Y237532D01*
X115998Y238326D01*
X114793Y238825D01*
X113500Y238996D01*
X112207Y238825D01*
X112028Y238751D01*
X95326Y255453D01*
Y346779D01*
X95832Y347168D01*
X96626Y348202D01*
X97125Y349407D01*
X97295Y350700D01*
X97125Y351993D01*
X96626Y353198D01*
X95832Y354232D01*
X94798Y355026D01*
X93593Y355525D01*
X92300Y355696D01*
D02*
G37*
G36*
X104932Y229500D02*
X101511D01*
X101581Y228968D01*
X101980Y228007D01*
X102613Y227181D01*
X103439Y226547D01*
X104401Y226149D01*
X104932Y226079D01*
Y229500D01*
D02*
G37*
G36*
X276500Y500800D02*
X274999Y500602D01*
X273600Y500023D01*
X272399Y499101D01*
X271477Y497900D01*
X270898Y496501D01*
X270700Y495000D01*
X270898Y493499D01*
X271477Y492100D01*
X272399Y490899D01*
X273600Y489977D01*
X274999Y489398D01*
X276500Y489200D01*
X277843Y489377D01*
X286474Y480747D01*
Y159850D01*
X286291Y159709D01*
X285569Y158769D01*
X285116Y157675D01*
X284961Y156500D01*
X285116Y155325D01*
X285569Y154231D01*
X286291Y153291D01*
X287231Y152569D01*
X288325Y152116D01*
X289500Y151961D01*
X290675Y152116D01*
X291769Y152569D01*
X292709Y153291D01*
X293431Y154231D01*
X293884Y155325D01*
X294039Y156500D01*
X293884Y157675D01*
X293431Y158769D01*
X292709Y159709D01*
X292526Y159850D01*
Y218733D01*
X292997Y218901D01*
X293316Y218513D01*
X294580Y217476D01*
X296021Y216705D01*
X297586Y216230D01*
X299213Y216070D01*
X300839Y216230D01*
X302404Y216705D01*
X303846Y217476D01*
X305109Y218513D01*
X306147Y219776D01*
X306917Y221218D01*
X307392Y222782D01*
X307552Y224409D01*
X307392Y226036D01*
X306917Y227601D01*
X306147Y229043D01*
X305109Y230306D01*
X303846Y231343D01*
X302404Y232114D01*
X300839Y232589D01*
X299213Y232749D01*
X297586Y232589D01*
X296021Y232114D01*
X294580Y231343D01*
X293316Y230306D01*
X292997Y229917D01*
X292526Y230086D01*
Y482000D01*
X292526Y482000D01*
X292423Y482783D01*
X292121Y483513D01*
X291640Y484140D01*
X291640Y484140D01*
X282123Y493656D01*
X282300Y495000D01*
X282102Y496501D01*
X281523Y497900D01*
X280601Y499101D01*
X279400Y500023D01*
X278001Y500602D01*
X276500Y500800D01*
D02*
G37*
G36*
X104932Y233921D02*
X104401Y233851D01*
X103439Y233453D01*
X102613Y232819D01*
X101980Y231993D01*
X101581Y231032D01*
X101511Y230500D01*
X104932D01*
Y233921D01*
D02*
G37*
G36*
X109353Y229500D02*
X105932D01*
Y226079D01*
X106464Y226149D01*
X107426Y226547D01*
X108252Y227181D01*
X108885Y228007D01*
X109283Y228968D01*
X109353Y229500D01*
D02*
G37*
G36*
X226953Y248453D02*
X217047D01*
Y238547D01*
X226953D01*
Y248453D01*
D02*
G37*
G36*
X232500Y247421D02*
Y244000D01*
X235921D01*
X235851Y244532D01*
X235453Y245493D01*
X234819Y246319D01*
X233993Y246953D01*
X233032Y247351D01*
X232500Y247421D01*
D02*
G37*
G36*
X231500D02*
X230968Y247351D01*
X230007Y246953D01*
X229181Y246319D01*
X228547Y245493D01*
X228149Y244532D01*
X228079Y244000D01*
X231500D01*
Y247421D01*
D02*
G37*
G36*
Y255000D02*
X228079D01*
X228149Y254468D01*
X228547Y253507D01*
X229181Y252681D01*
X230007Y252047D01*
X230968Y251649D01*
X231500Y251579D01*
Y255000D01*
D02*
G37*
G36*
X242000Y260495D02*
X240707Y260325D01*
X239502Y259826D01*
X238468Y259032D01*
X237674Y257998D01*
X237175Y256793D01*
X237004Y255500D01*
X237175Y254207D01*
X237674Y253002D01*
X238468Y251968D01*
X239502Y251174D01*
X240707Y250675D01*
X242000Y250504D01*
X243293Y250675D01*
X244498Y251174D01*
X245532Y251968D01*
X246326Y253002D01*
X246825Y254207D01*
X246995Y255500D01*
X246825Y256793D01*
X246326Y257998D01*
X245532Y259032D01*
X244498Y259826D01*
X243293Y260325D01*
X242000Y260495D01*
D02*
G37*
G36*
X276953Y244953D02*
X273500D01*
Y241500D01*
X276953D01*
Y244953D01*
D02*
G37*
G36*
X231500Y243000D02*
X228079D01*
X228149Y242468D01*
X228547Y241507D01*
X229181Y240681D01*
X230007Y240047D01*
X230968Y239649D01*
X231500Y239579D01*
Y243000D01*
D02*
G37*
G36*
X125500Y446539D02*
X125500D01*
X119500Y446539D01*
X118720Y446384D01*
X118058Y445942D01*
X117616Y445280D01*
X117461Y444500D01*
Y444500D01*
X117461Y240750D01*
X117616Y239970D01*
X117911Y239528D01*
X118058Y239308D01*
X118058D01*
Y239308D01*
X118278Y239161D01*
X118720Y238866D01*
X119500Y238711D01*
X125500Y238711D01*
X125500D01*
X126280Y238866D01*
X126722Y239161D01*
X126942Y239308D01*
Y239308D01*
X126942D01*
X127089Y239528D01*
X127384Y239970D01*
X127539Y240750D01*
Y240750D01*
Y444500D01*
Y444500D01*
X127384Y445280D01*
X126942Y445942D01*
X126280Y446384D01*
X125500Y446539D01*
D02*
G37*
G36*
X272500Y244953D02*
X269047D01*
Y241500D01*
X272500D01*
Y244953D01*
D02*
G37*
G36*
X235921Y243000D02*
X232500D01*
Y239579D01*
X233032Y239649D01*
X233993Y240047D01*
X234819Y240681D01*
X235453Y241507D01*
X235851Y242468D01*
X235921Y243000D01*
D02*
G37*
%LPD*%
D10*
X268500Y318500D02*
D03*
Y309500D02*
D03*
Y331000D02*
D03*
Y340000D02*
D03*
Y352500D02*
D03*
Y361500D02*
D03*
X260500Y85000D02*
D03*
Y76000D02*
D03*
X205500D02*
D03*
Y85000D02*
D03*
X246500D02*
D03*
Y76000D02*
D03*
X193000Y85000D02*
D03*
Y76000D02*
D03*
X218500Y85000D02*
D03*
Y76000D02*
D03*
X232500Y85000D02*
D03*
Y76000D02*
D03*
D11*
X241000Y378000D02*
D03*
Y384000D02*
D03*
Y390000D02*
D03*
Y396000D02*
D03*
Y402000D02*
D03*
Y408000D02*
D03*
Y414000D02*
D03*
Y420000D02*
D03*
Y426000D02*
D03*
Y432000D02*
D03*
Y438000D02*
D03*
Y444000D02*
D03*
Y450000D02*
D03*
Y456000D02*
D03*
Y462000D02*
D03*
Y468000D02*
D03*
X214000D02*
D03*
Y462000D02*
D03*
Y456000D02*
D03*
Y450000D02*
D03*
Y444000D02*
D03*
Y438000D02*
D03*
Y432000D02*
D03*
Y426000D02*
D03*
Y420000D02*
D03*
Y414000D02*
D03*
Y408000D02*
D03*
Y402000D02*
D03*
Y396000D02*
D03*
Y390000D02*
D03*
Y384000D02*
D03*
Y378000D02*
D03*
D12*
X164500Y479000D02*
X172500Y487000D01*
X164500Y453500D02*
Y479000D01*
X135500Y424500D02*
X164500Y453500D01*
X135500Y234000D02*
Y424500D01*
X172500Y487000D02*
X184500D01*
X126000Y137500D02*
Y224500D01*
X107079Y118579D02*
X126000Y137500D01*
Y224500D02*
X135500Y234000D01*
X107079Y53937D02*
Y118579D01*
X179000Y8000D02*
Y18500D01*
X139500Y58000D02*
X179000Y18500D01*
X120984Y58000D02*
X139500D01*
X116921Y53937D02*
X120984Y58000D01*
D13*
X203400Y185500D02*
X212500Y194600D01*
X196100Y179900D02*
Y228600D01*
X163000Y426500D02*
X167500Y422000D01*
X153000Y426500D02*
X163000D01*
X182500Y439206D02*
X184500Y441206D01*
X182500Y428500D02*
Y439206D01*
Y428500D02*
X185000Y426000D01*
X188000Y432000D02*
X212000D01*
X184500Y441206D02*
Y461500D01*
X179500Y466500D02*
X184500Y461500D01*
X179500Y466500D02*
Y474000D01*
X185000Y426000D02*
X214000D01*
X154500Y242500D02*
Y410500D01*
X133500Y221500D02*
X154500Y242500D01*
X133500Y106500D02*
Y221500D01*
X158000Y267000D02*
X169000Y256000D01*
X158000Y267000D02*
Y269000D01*
X160000Y271000D01*
X163500Y269500D02*
Y329500D01*
Y269500D02*
X174500Y258500D01*
X163500Y329500D02*
X169500Y335500D01*
X160000Y271000D02*
Y348500D01*
X212500Y258000D02*
X222000Y267500D01*
X218000Y271500D02*
X222000Y267500D01*
X207000Y271500D02*
X218000D01*
X100000Y191000D02*
X115500Y206500D01*
X70000Y191000D02*
X100000D01*
X64000Y197000D02*
X70000Y191000D01*
X122700Y485000D02*
X161000D01*
X39500Y401800D02*
X122700Y485000D01*
X169000Y188500D02*
Y256000D01*
X149000Y168500D02*
X169000Y188500D01*
X149000Y118900D02*
Y168500D01*
X174500Y186300D02*
Y258500D01*
X155000Y166800D02*
X174500Y186300D01*
X184500Y487000D02*
X185000Y487500D01*
X257000Y384000D02*
X264500Y376500D01*
X241000Y384000D02*
X257000D01*
X241000Y378000D02*
X254500D01*
X256000Y376500D01*
Y373000D02*
Y376500D01*
X244000Y361000D02*
X256000Y373000D01*
X224000Y361000D02*
X244000D01*
X215000Y370000D02*
X224000Y361000D01*
X204000Y370000D02*
X215000D01*
X193000Y384000D02*
X214000D01*
X188000Y379000D02*
X193000Y384000D01*
X188000Y369000D02*
Y379000D01*
Y369000D02*
X194000Y363000D01*
X199500Y334500D02*
Y351500D01*
X180500Y315500D02*
X199500Y334500D01*
X173500Y315500D02*
X180500D01*
X173500Y305500D02*
X182000D01*
X212500Y336000D01*
Y351500D02*
Y356000D01*
Y336000D02*
Y351500D01*
X209500Y359000D02*
X212500Y356000D01*
X191500Y359000D02*
X209500D01*
X167500Y383000D02*
X191500Y359000D01*
X216500Y363000D02*
X222500Y357000D01*
X194000Y363000D02*
X216500D01*
X167500Y383000D02*
Y422000D01*
X186500Y351500D02*
Y358000D01*
X161500Y383000D02*
X186500Y358000D01*
X161500Y383000D02*
Y419000D01*
X186500Y333000D02*
Y351500D01*
X179000Y325500D02*
X186500Y333000D01*
X173500Y325500D02*
X179000D01*
X169500Y335500D02*
X173500D01*
X222500Y298100D02*
Y357000D01*
X235000Y345000D02*
X240500D01*
X247500Y338000D01*
Y273000D02*
Y338000D01*
Y273000D02*
X259000Y261500D01*
X191900Y267500D02*
X222500Y298100D01*
X268500Y361500D02*
X270000Y363000D01*
X275000D01*
X276500Y495000D02*
X289500Y482000D01*
Y156500D02*
Y482000D01*
X264000Y156000D02*
Y156500D01*
X259000Y151000D02*
X264000Y156000D01*
X231000Y151000D02*
X259000D01*
X286900Y73400D02*
Y135000D01*
X272000Y58500D02*
X286900Y73400D01*
X283400Y139900D02*
Y168100D01*
X277500Y134000D02*
X283400Y139900D01*
X277500Y133000D02*
Y134000D01*
X267500Y174300D02*
X271000Y170800D01*
Y133000D02*
Y170800D01*
X250500Y112500D02*
X271000Y133000D01*
X267500Y174300D02*
Y225500D01*
X281000Y234500D02*
Y261500D01*
X112500Y234000D02*
X113500D01*
X92300Y254200D02*
X112500Y234000D01*
X92300Y254200D02*
Y350700D01*
X265000Y505000D02*
X266500Y503500D01*
X181000Y505000D02*
X265000D01*
X161000Y485000D02*
X181000Y505000D01*
X39500Y237000D02*
Y401800D01*
X273000Y246000D02*
Y309500D01*
X199700Y420000D02*
X214000D01*
X149000Y118900D02*
X182900Y85000D01*
X155000Y161500D02*
Y166800D01*
X198000Y112700D02*
Y142000D01*
Y112700D02*
X212000Y98700D01*
Y79000D02*
Y98700D01*
Y79000D02*
X215000Y76000D01*
X218500D01*
Y85000D02*
Y93000D01*
X233000Y107500D01*
X193000Y85000D02*
Y94600D01*
X268500Y331000D02*
X276252D01*
X280500Y326752D01*
X214800Y172300D02*
X235000Y192500D01*
X196100Y228600D02*
X207000Y239500D01*
X212500Y194600D02*
Y258000D01*
X193219Y402000D02*
X214000D01*
X190219Y405000D02*
X193219Y402000D01*
X190219Y405000D02*
Y417555D01*
X277500Y174000D02*
X283400Y168100D01*
X205500Y85000D02*
Y99800D01*
X191500Y113800D02*
X205500Y99800D01*
X191500Y113800D02*
Y160500D01*
X232000Y201000D01*
Y243500D01*
X36600Y230000D02*
X105432D01*
X27800Y238800D02*
X36600Y230000D01*
X27800Y238800D02*
Y262500D01*
X260500Y85000D02*
Y116000D01*
X277500Y133000D01*
X131685Y41339D02*
Y45276D01*
X205500Y63000D02*
Y76000D01*
X200500Y58000D02*
X205500Y63000D01*
X246500Y64000D02*
Y76000D01*
Y64000D02*
X252000Y58500D01*
X246500Y85000D02*
Y103500D01*
X250500Y107500D01*
Y112500D01*
X268500Y352500D02*
X277000D01*
X281000Y356500D01*
X218500Y69000D02*
Y76000D01*
Y69000D02*
X220500Y67000D01*
Y58000D02*
Y67000D01*
X197500Y378000D02*
X214000D01*
X201300Y414000D02*
X214000D01*
X197200Y409900D02*
X201300Y414000D01*
X268500Y309500D02*
X273000D01*
X182900Y85000D02*
X193000D01*
X272000Y179500D02*
X277500Y174000D01*
X272000Y179500D02*
Y221400D01*
X273000Y222400D01*
Y241000D01*
X272000Y8500D02*
Y58500D01*
X220500Y8000D02*
Y58000D01*
X218500Y76000D02*
X232500D01*
X268500Y340000D02*
Y352500D01*
X232500Y85000D02*
X246500D01*
X268500Y318500D02*
Y331000D01*
X252000Y8500D02*
Y58500D01*
X246500Y76000D02*
X260500D01*
X200500Y8000D02*
Y58000D01*
X193000Y76000D02*
X205500D01*
X173500Y335500D02*
Y351500D01*
D14*
X178500Y456373D02*
X178600Y456473D01*
X178500Y405000D02*
Y456373D01*
Y405000D02*
X193500Y390000D01*
X172000Y476000D02*
X176000Y480000D01*
X172000Y463073D02*
Y476000D01*
Y463073D02*
X178600Y456473D01*
X200500Y462000D02*
X214000D01*
X182500Y480000D02*
X200500Y462000D01*
X176000Y480000D02*
X182500D01*
X185000Y487500D02*
X244500D01*
X184500Y487000D02*
X203500Y468000D01*
X214000D01*
X241000Y390000D02*
X261000D01*
X262000D02*
X275000Y377000D01*
Y363000D02*
Y377000D01*
X232000Y243500D02*
X241000Y234500D01*
X248000D01*
X252500Y239000D01*
Y244500D01*
X256500Y248500D01*
X270500D01*
X273000Y246000D01*
Y241000D02*
Y246000D01*
X232000Y243500D02*
Y255500D01*
Y267500D01*
Y284000D01*
X233500Y285500D01*
X193500Y390000D02*
X214000D01*
X198000Y438000D02*
X214000D01*
X198000Y450000D02*
X214000D01*
X191000Y456000D02*
X214000D01*
X191000Y444500D02*
X191500Y444000D01*
X256500Y495000D02*
X261000Y490500D01*
Y468000D02*
Y490500D01*
X255000Y462000D02*
X261000Y468000D01*
X241000Y462000D02*
X255000D01*
X275500Y398500D02*
X280500D01*
X256000Y418000D02*
X275500Y398500D01*
X256000Y418000D02*
Y435500D01*
X259000Y456000D02*
X272000Y443000D01*
Y425000D02*
Y443000D01*
Y425000D02*
X274878Y422122D01*
X255000Y444000D02*
X261500Y437500D01*
Y420000D02*
Y437500D01*
Y420000D02*
X275126Y406374D01*
X257000Y450000D02*
X266500Y440500D01*
Y422500D02*
Y440500D01*
Y422500D02*
X274752Y414248D01*
X253500Y438000D02*
X256000Y435500D01*
X274878Y422122D02*
X280500D01*
X275126Y406374D02*
X280500D01*
X274752Y414248D02*
X280500D01*
X241000Y456000D02*
X259000D01*
X241000Y450000D02*
X257000D01*
X241000Y444000D02*
X255000D01*
X241000Y438000D02*
X253500D01*
X191500Y444000D02*
X214000D01*
X241000Y468000D02*
X252500D01*
X254500Y470000D01*
Y477500D01*
X244500Y487500D02*
X254500Y477500D01*
D15*
X139500Y172000D02*
D03*
Y191000D02*
D03*
X280500Y406374D02*
D03*
Y414248D02*
D03*
Y422122D02*
D03*
X280000Y449374D02*
D03*
Y457248D02*
D03*
Y465122D02*
D03*
X280500Y290626D02*
D03*
Y282752D02*
D03*
Y274878D02*
D03*
Y334626D02*
D03*
Y326752D02*
D03*
Y318878D02*
D03*
D16*
X276500Y495000D02*
D03*
X256500D02*
D03*
X266500Y505000D02*
D03*
D17*
X233000Y107500D02*
D03*
X257000Y175500D02*
D03*
X173500Y351500D02*
D03*
X186500D02*
D03*
X199500D02*
D03*
X212500D02*
D03*
X253500Y354000D02*
D03*
X235000Y192500D02*
D03*
X281000Y356500D02*
D03*
X139500Y209500D02*
D03*
X231000Y151000D02*
D03*
X250500Y107500D02*
D03*
X222000Y243500D02*
D03*
X207000Y239500D02*
D03*
X16000Y41000D02*
D03*
X263500Y143000D02*
D03*
X222000Y255500D02*
D03*
X207000D02*
D03*
X277500Y117000D02*
D03*
X124500Y70000D02*
D03*
X222000Y267500D02*
D03*
X207000Y271500D02*
D03*
X297500Y175500D02*
D03*
X273000Y241000D02*
D03*
X179000Y8000D02*
D03*
D18*
X277500Y204000D02*
D03*
Y194000D02*
D03*
Y184000D02*
D03*
X232000Y243500D02*
D03*
X242000D02*
D03*
X39000Y26000D02*
D03*
Y36000D02*
D03*
Y46000D02*
D03*
X277500Y143000D02*
D03*
X232000Y255500D02*
D03*
X242000D02*
D03*
X232000Y267500D02*
D03*
X242000D02*
D03*
X263000Y241000D02*
D03*
X169000Y8000D02*
D03*
X115937Y29528D02*
D03*
X108063D02*
D03*
X131685Y45276D02*
D03*
Y37402D02*
D03*
X203400Y185500D02*
D03*
X196100Y179900D02*
D03*
X153000Y426500D02*
D03*
X188000Y432000D02*
D03*
X160000Y348500D02*
D03*
X154500Y410500D02*
D03*
X179500Y474000D02*
D03*
X264500Y376500D02*
D03*
X161500Y419000D02*
D03*
X39500Y237000D02*
D03*
X133500Y106500D02*
D03*
X178600Y456473D02*
D03*
X199700Y420000D02*
D03*
X198000Y438000D02*
D03*
Y450000D02*
D03*
X191000Y456000D02*
D03*
Y444500D02*
D03*
X113500Y234000D02*
D03*
X64000Y197000D02*
D03*
X155000Y161500D02*
D03*
X193000Y94600D02*
D03*
X214800Y172300D02*
D03*
X92300Y350700D02*
D03*
X190219Y417555D02*
D03*
X191900Y267500D02*
D03*
X105432Y230000D02*
D03*
X27800Y262500D02*
D03*
X197500Y378000D02*
D03*
X197200Y409900D02*
D03*
X286900Y135000D02*
D03*
D19*
X277500Y174000D02*
D03*
X39000Y56000D02*
D03*
X277500Y133000D02*
D03*
D20*
X272000Y58500D02*
D03*
X252000D02*
D03*
X272000Y8500D02*
D03*
X220500Y58000D02*
D03*
X200500D02*
D03*
X220500Y8000D02*
D03*
D21*
X252000Y8500D02*
D03*
X200500Y8000D02*
D03*
D22*
X112000Y53937D02*
D03*
D23*
Y29528D02*
D03*
D24*
X131685Y41339D02*
D03*
D25*
X107079Y53937D02*
D03*
X116921D02*
D03*
D26*
X153543Y224409D02*
D03*
X299213Y496063D02*
D03*
X153543Y15748D02*
D03*
X299213Y224409D02*
D03*
Y15748D02*
D03*
X15748D02*
D03*
X153543Y496063D02*
D03*
D27*
X12500Y95476D02*
D03*
X94000D02*
D03*
X12500Y206500D02*
D03*
X94000D02*
D03*
D28*
X53000Y149500D02*
D03*
D29*
X56000Y206500D02*
D03*
D30*
X233500Y335500D02*
D03*
Y325500D02*
D03*
Y295500D02*
D03*
Y305500D02*
D03*
Y315500D02*
D03*
Y285500D02*
D03*
X173500Y325500D02*
D03*
Y305500D02*
D03*
Y295500D02*
D03*
Y315500D02*
D03*
Y285500D02*
D03*
D31*
Y335500D02*
D03*
D32*
X68000Y50280D02*
D03*
Y23000D02*
D03*
D33*
X209811Y114441D02*
D03*
X219654Y110504D02*
D03*
X183039Y96724D02*
D03*
X180283Y128220D02*
D03*
X198000Y142000D02*
D03*
D34*
X280500Y398500D02*
D03*
X280000Y441500D02*
D03*
X280500Y298500D02*
D03*
Y342500D02*
D03*
D35*
X157000Y213000D02*
D03*
X261000Y390500D02*
D03*
X204000Y370000D02*
D03*
X235000Y345000D02*
D03*
X259000Y261500D02*
D03*
X275000Y363000D02*
D03*
X289500Y156500D02*
D03*
X264000D02*
D03*
X267500Y225500D02*
D03*
X281000Y234500D02*
D03*
Y261500D02*
D03*
X115500Y206500D02*
D03*
M02*
