M48
;Layer_Color=9474304
;FILE_FORMAT=2:3
INCH,LZ
;TYPE=PLATED
T01F00S00C0.032
T02F00S00C0.035
T03F00S00C0.036
T04F00S00C0.039
T05F00S00C0.043
T06F00S00C0.044
T07F00S00C0.063
T08F00S00C0.095
;TYPE=NON_PLATED
T09F00S00C0.055
T10F00S00C0.095
%
T01
X0157Y0213
T02
X02148Y01723
X0264Y01565
X02895
X02869Y0135
X02034Y01855
X01961Y01799
X0155Y01615
X01395Y0172
Y0191
X01155Y02065
X0064Y0197
X01335Y01065
X0193Y00946
X00395Y0237
X00278Y02625
X01054Y023
X01135Y0234
X01919Y02675
X016Y03485
X00923Y03507
X0235Y0345
X0275Y0363
X0281Y02615
X0259
X02675Y02255
X0281Y02345
X02645Y03765
X0261Y03905
X01975Y0378
X0204Y037
X01972Y04099
X01997Y042
X01902Y04176
X0188Y0432
X0191Y04445
Y0456
X01786Y04565
X01795Y0474
X0198Y045
Y0438
X01615Y0419
X01545Y04105
X0153Y04265
T03
X02565Y0495
X02765
X02665Y0505
T04
X0016Y0041
X0039Y0036
Y0026
Y0046
Y0056
X0169Y0008
X0179
X0233Y01075
X02505
X02775Y0117
Y0133
Y0143
X02635
X0257Y01755
X02775Y0174
Y0184
Y0194
Y0204
X02975Y01755
X0235Y01925
X0231Y0151
X01395Y02095
X01245Y007
X0207Y02395
Y02555
Y02715
X01735Y02855
Y02955
Y03055
Y03155
Y03255
Y03355
Y03515
X01865
X01995
X02125
X02335Y03355
Y03255
Y03155
Y03055
Y02955
Y02855
X0232Y02675
X0222
Y02555
X0232
X0242
Y02435
X0232
X0222
X0263Y0241
X0273
X02805Y02749
Y02828
Y02906
Y02985
Y03189
Y03268
Y03346
Y03425
X0281Y03565
X02535Y0354
X0242Y02675
X02805Y03985
Y04064
Y04142
Y04221
X028Y04415
Y04494
Y04572
Y04651
T05
X01081Y00295
X01159
X01317Y00374
Y00453
X01169Y00539
X01071
T06
X02005Y0008
X02205
X0252Y00085
X0272
Y00585
X0252
X02205Y0058
X02005
T07
X02197Y01105
X02098Y01144
X0198Y0142
X01803Y01282
X0183Y00967
T08
X00157Y00157
X0068Y0023
Y00503
X01535Y00157
X02992
X01535Y02244
X02992
Y04961
X01535
T09
X0056Y02065
T10
X0094Y00955
Y02065
X00125
X0053Y01495
X00125Y00955
M30
