M48
;Layer_Color=9474304
;FILE_FORMAT=2:3
INCH,LZ
;TYPE=PLATED
T1F00S00C0.031
T2F00S00C0.035
T3F00S00C0.039
T4F00S00C0.091
%
T01
X00095Y00375
X0021Y00325
X00335Y0053
X00693Y00542
X0078Y0036
X0094Y00425
X01411Y00515
X0181Y00523
X02225Y00425
X02345Y00839
X02726Y00894
X02715Y01188
X02749Y01499
X0256Y01522
X0246Y01771
X02171Y01402
X02165Y01248
X02077Y0171
X02052Y0211
X01585Y01485
X01409Y01433
X01316Y01384
X0117Y01395
X00915Y01425
Y0156
X00785Y01625
X013Y0162
X01245Y01705
X01485Y0132
X01585Y0114
Y01051
X0144Y00831
X0125Y00738
X0116Y00965
X00945Y00819
X00811Y0083
X00776Y00748
X00804Y00603
X00585Y00765
X0172Y00703
X01745Y00813
X0193Y0082
X0175Y0058
X00535Y00635
X0046Y00675
X004Y00785
X0029Y00765
X00285Y01345
X00436Y0169
X0041Y0187
X0033Y01935
X00239Y02466
X003Y0288
X00345Y03025
X00521Y03687
X00623Y03303
X0083Y0275
X00895Y0263
X01209
X012Y0249
X0117Y02415
X01175Y0233
Y0219
X01385Y02155
X01455Y02255
X01591Y02174
X0196Y02291
X0089Y0232
X00799Y02347
X00879Y02203
X0137Y0353
X01745Y0348
X02911Y03359
X02505Y0219
X02915Y0376
X02932Y0398
X00712Y03804
X00387Y03935
T02
X02205Y01905
Y02005
X02305
Y01905
X02405
Y02005
X02505
Y01905
X02605
Y02005
X02105
Y01905
X01905
Y02005
X01805
Y01905
X01705
Y02005
X01605
Y01905
X01505
Y02005
X01405
Y01905
X01305
Y02005
X01205
Y01905
X0116Y0108
X0103Y00985
X0088Y01075
X02205Y03705
X02305
X02405
X02505
X02605
Y03805
X02505
X02405
X02305
X02205
X02105
Y03705
X02005
Y03805
X01905
Y03705
X01745
Y03805
X01645
Y03705
X01545
Y03805
X01445
Y03705
X01345
Y03805
X01245
Y03705
X01145
Y03805
X01045
Y03705
X00945
Y03805
X00845
Y03705
T03
X00582Y01052
Y01151
Y01229
Y01328
T04
X00475Y00931
Y01449
X01945Y02455
Y04109
M30
