M48
;Layer_Color=9474304
;FILE_FORMAT=2:3
INCH,LZ
;TYPE=PLATED
T1F00S00C0.031
T2F00S00C0.035
%
T01
X00295Y00165
X00355Y00205
X0014Y0033
X0008Y00425
X01315Y00365
X0138Y0038
X01365Y01025
X0142Y0116
X0117Y01405
X00835Y01485
X00735Y0103
X0021
T02
X0038Y0047
X0048
X0068
X0078
X0088
X0098
Y00595
X0088
X0078
X0068
X0108
X0118
Y0127
X0108
X0098
X0088
X0078
X0068
Y01395
X0078
X0088
X0098
X014Y01545
X0048Y01395
X0038
Y0127
X0028
X0048
X0058
Y00595
X0048
X0038
X0028
M30
