%FSLAX25Y25*%
%MOIN*%
G70*
G01*
G75*
G04 Layer_Physical_Order=1*
G04 Layer_Color=255*
%ADD10R,0.03000X0.20000*%
%ADD11C,0.02000*%
%ADD12C,0.12992*%
%ADD13C,0.07087*%
%ADD14C,0.06000*%
%ADD15R,0.05906X0.05906*%
%ADD16C,0.05906*%
%ADD17C,0.12598*%
G36*
X101998Y133740D02*
Y124003D01*
X102192Y123028D01*
X102745Y122201D01*
X106951Y117994D01*
Y102953D01*
X103750D01*
Y98500D01*
X102250D01*
Y102953D01*
X100096D01*
Y132491D01*
X101536Y133932D01*
X101998Y133740D01*
D02*
G37*
G36*
X54572Y129183D02*
X55626Y128374D01*
X56853Y127866D01*
X57078Y127836D01*
Y127332D01*
X56995Y127321D01*
X55900Y126868D01*
X54960Y126146D01*
X54238Y125206D01*
X53785Y124112D01*
X53631Y122937D01*
X53785Y121762D01*
X54238Y120668D01*
X54960Y119728D01*
X55497Y119315D01*
Y118685D01*
X54960Y118272D01*
X54238Y117332D01*
X53785Y116238D01*
X53631Y115063D01*
X53785Y113888D01*
X54238Y112794D01*
X54960Y111854D01*
X55900Y111132D01*
X56995Y110679D01*
X57078Y110668D01*
Y110164D01*
X56853Y110134D01*
X55626Y109626D01*
X54572Y108817D01*
X53764Y107764D01*
X53256Y106537D01*
X53181Y105971D01*
X58169D01*
Y105220D01*
X58919D01*
Y100232D01*
X59486Y100307D01*
X60713Y100815D01*
X61766Y101624D01*
X61977Y101899D01*
X62451Y101738D01*
Y95533D01*
X54698Y87779D01*
X54145Y86953D01*
X53951Y85977D01*
Y83334D01*
X51198Y80581D01*
X50645Y79754D01*
X50549Y79271D01*
X50049Y79320D01*
Y79500D01*
X49855Y80475D01*
X49302Y81302D01*
X45809Y84796D01*
X46072Y85240D01*
X47500Y85099D01*
X49068Y85254D01*
X50575Y85711D01*
X51964Y86453D01*
X53181Y87452D01*
X54181Y88670D01*
X54923Y90059D01*
X55380Y91566D01*
X55535Y93134D01*
X55380Y94701D01*
X54923Y96209D01*
X54181Y97598D01*
X53181Y98815D01*
X51964Y99814D01*
X50575Y100557D01*
X49068Y101014D01*
X47500Y101169D01*
X45932Y101014D01*
X44425Y100557D01*
X43036Y99814D01*
X41819Y98815D01*
X40819Y97598D01*
X40077Y96209D01*
X39620Y94701D01*
X39465Y93134D01*
X39606Y91706D01*
X39162Y91443D01*
X35549Y95056D01*
Y123444D01*
X42335Y130231D01*
X53768D01*
X54572Y129183D01*
D02*
G37*
G36*
X328000Y25000D02*
X327500Y24500D01*
X237693D01*
X237609Y25000D01*
X300052Y87444D01*
X300605Y88271D01*
X300799Y89246D01*
Y369350D01*
X300605Y370325D01*
X300052Y371152D01*
X295900Y375305D01*
X295991Y376000D01*
X295838Y377162D01*
X295390Y378246D01*
X294676Y379176D01*
X293746Y379889D01*
X292662Y380338D01*
X291500Y380491D01*
X290338Y380338D01*
X289254Y379889D01*
X288535Y379338D01*
X288035Y379584D01*
Y390514D01*
X287841Y391489D01*
X287289Y392316D01*
X284102Y395502D01*
X283276Y396055D01*
X282300Y396249D01*
X223700D01*
X222725Y396055D01*
X221898Y395502D01*
X211283Y384888D01*
X210500Y384991D01*
X209338Y384838D01*
X208254Y384389D01*
X207324Y383676D01*
X206610Y382746D01*
X206162Y381662D01*
X206009Y380500D01*
X206162Y379338D01*
X206610Y378254D01*
X207324Y377324D01*
X208254Y376610D01*
X209338Y376162D01*
X210500Y376009D01*
X211662Y376162D01*
X212746Y376610D01*
X213676Y377324D01*
X214389Y378254D01*
X214838Y379338D01*
X214991Y380500D01*
X214888Y381283D01*
X215871Y382266D01*
X216295Y381983D01*
X216162Y381662D01*
X216009Y380500D01*
X216162Y379338D01*
X216611Y378254D01*
X217324Y377324D01*
X218254Y376610D01*
X219338Y376162D01*
X220500Y376009D01*
X221662Y376162D01*
X222746Y376610D01*
X223676Y377324D01*
X224390Y378254D01*
X224838Y379338D01*
X224991Y380500D01*
X224888Y381283D01*
X225871Y382266D01*
X226294Y381983D01*
X226162Y381662D01*
X226009Y380500D01*
X226162Y379338D01*
X226610Y378254D01*
X227324Y377324D01*
X228254Y376610D01*
X229338Y376162D01*
X230500Y376009D01*
X231662Y376162D01*
X232746Y376610D01*
X233676Y377324D01*
X234389Y378254D01*
X234838Y379338D01*
X234991Y380500D01*
X234888Y381283D01*
X235871Y382266D01*
X236295Y381983D01*
X236162Y381662D01*
X236009Y380500D01*
X236162Y379338D01*
X236611Y378254D01*
X237324Y377324D01*
X238254Y376610D01*
X239338Y376162D01*
X240500Y376009D01*
X241662Y376162D01*
X242746Y376610D01*
X243676Y377324D01*
X244390Y378254D01*
X244838Y379338D01*
X244991Y380500D01*
X244838Y381662D01*
X244390Y382746D01*
X244192Y383003D01*
X244413Y383451D01*
X246587D01*
X246808Y383003D01*
X246610Y382746D01*
X246162Y381662D01*
X246009Y380500D01*
X246162Y379338D01*
X246610Y378254D01*
X247324Y377324D01*
X248254Y376610D01*
X249338Y376162D01*
X250500Y376009D01*
X251662Y376162D01*
X252746Y376610D01*
X253676Y377324D01*
X254390Y378254D01*
X254838Y379338D01*
X254991Y380500D01*
X254838Y381662D01*
X254390Y382746D01*
X254192Y383003D01*
X254413Y383451D01*
X256587D01*
X256808Y383003D01*
X256610Y382746D01*
X256162Y381662D01*
X256009Y380500D01*
X256162Y379338D01*
X256610Y378254D01*
X257324Y377324D01*
X258254Y376610D01*
X259338Y376162D01*
X260500Y376009D01*
X261283Y376112D01*
X262266Y375129D01*
X261983Y374706D01*
X261662Y374838D01*
X260500Y374991D01*
X259338Y374838D01*
X258254Y374390D01*
X257324Y373676D01*
X256610Y372746D01*
X256162Y371662D01*
X256009Y370500D01*
X256162Y369338D01*
X256610Y368254D01*
X257324Y367324D01*
X258254Y366611D01*
X259338Y366162D01*
X260500Y366009D01*
X261662Y366162D01*
X262746Y366611D01*
X263676Y367324D01*
X264389Y368254D01*
X264838Y369338D01*
X264991Y370500D01*
X264838Y371662D01*
X264705Y371983D01*
X265129Y372266D01*
X270499Y366897D01*
Y344759D01*
X270037Y344568D01*
X248734Y365871D01*
X249017Y366295D01*
X249338Y366162D01*
X250500Y366009D01*
X251662Y366162D01*
X252746Y366611D01*
X253676Y367324D01*
X254390Y368254D01*
X254838Y369338D01*
X254991Y370500D01*
X254838Y371662D01*
X254390Y372746D01*
X253676Y373676D01*
X252746Y374390D01*
X251662Y374838D01*
X250500Y374991D01*
X249338Y374838D01*
X248254Y374390D01*
X247324Y373676D01*
X246610Y372746D01*
X246162Y371662D01*
X246009Y370500D01*
X246162Y369338D01*
X246294Y369017D01*
X245871Y368734D01*
X244888Y369717D01*
X244991Y370500D01*
X244838Y371662D01*
X244390Y372746D01*
X243676Y373676D01*
X242746Y374390D01*
X241662Y374838D01*
X240500Y374991D01*
X239338Y374838D01*
X238254Y374390D01*
X237324Y373676D01*
X236611Y372746D01*
X236162Y371662D01*
X236009Y370500D01*
X236162Y369338D01*
X236611Y368254D01*
X237324Y367324D01*
X238254Y366611D01*
X239338Y366162D01*
X240500Y366009D01*
X241283Y366112D01*
X266904Y340491D01*
Y318354D01*
X266442Y318163D01*
X218734Y365871D01*
X219017Y366295D01*
X219338Y366162D01*
X220500Y366009D01*
X221662Y366162D01*
X222746Y366611D01*
X223676Y367324D01*
X224390Y368254D01*
X224838Y369338D01*
X224991Y370500D01*
X224838Y371662D01*
X224390Y372746D01*
X223676Y373676D01*
X222746Y374390D01*
X221662Y374838D01*
X220500Y374991D01*
X219338Y374838D01*
X218254Y374390D01*
X217324Y373676D01*
X216611Y372746D01*
X216162Y371662D01*
X216009Y370500D01*
X216162Y369338D01*
X216295Y369017D01*
X215871Y368734D01*
X214888Y369717D01*
X214991Y370500D01*
X214838Y371662D01*
X214389Y372746D01*
X213676Y373676D01*
X212746Y374390D01*
X211662Y374838D01*
X210500Y374991D01*
X209338Y374838D01*
X208254Y374390D01*
X207324Y373676D01*
X206610Y372746D01*
X206162Y371662D01*
X206009Y370500D01*
X206162Y369338D01*
X206294Y369017D01*
X205871Y368734D01*
X204888Y369717D01*
X204991Y370500D01*
X204838Y371662D01*
X204390Y372746D01*
X203676Y373676D01*
X202746Y374390D01*
X201662Y374838D01*
X200500Y374991D01*
X199338Y374838D01*
X198254Y374390D01*
X197324Y373676D01*
X196610Y372746D01*
X196162Y371662D01*
X196009Y370500D01*
X196162Y369338D01*
X196610Y368254D01*
X197324Y367324D01*
X198254Y366611D01*
X199338Y366162D01*
X200500Y366009D01*
X201283Y366112D01*
X257951Y309444D01*
Y216500D01*
X258145Y215525D01*
X258698Y214698D01*
X264384Y209011D01*
X264193Y208549D01*
X236000D01*
X235024Y208355D01*
X234198Y207802D01*
X231283Y204888D01*
X230500Y204991D01*
X229338Y204838D01*
X228254Y204390D01*
X227324Y203676D01*
X226610Y202746D01*
X226162Y201662D01*
X226009Y200500D01*
X226162Y199338D01*
X226610Y198254D01*
X227324Y197324D01*
X228254Y196610D01*
X229338Y196162D01*
X230500Y196009D01*
X231662Y196162D01*
X232746Y196610D01*
X233676Y197324D01*
X234389Y198254D01*
X234838Y199338D01*
X234991Y200500D01*
X234888Y201283D01*
X235871Y202266D01*
X236295Y201983D01*
X236162Y201662D01*
X236009Y200500D01*
X236162Y199338D01*
X236611Y198254D01*
X237324Y197324D01*
X238254Y196610D01*
X239338Y196162D01*
X240500Y196009D01*
X241662Y196162D01*
X242746Y196610D01*
X243676Y197324D01*
X244390Y198254D01*
X244838Y199338D01*
X244991Y200500D01*
X244838Y201662D01*
X244390Y202746D01*
X244192Y203003D01*
X244413Y203451D01*
X246587D01*
X246808Y203003D01*
X246610Y202746D01*
X246162Y201662D01*
X246009Y200500D01*
X246162Y199338D01*
X246610Y198254D01*
X247324Y197324D01*
X248254Y196610D01*
X249338Y196162D01*
X250500Y196009D01*
X251662Y196162D01*
X252746Y196610D01*
X253676Y197324D01*
X254390Y198254D01*
X254838Y199338D01*
X254991Y200500D01*
X254838Y201662D01*
X254390Y202746D01*
X254192Y203003D01*
X254413Y203451D01*
X256587D01*
X256808Y203003D01*
X256610Y202746D01*
X256162Y201662D01*
X256009Y200500D01*
X256162Y199338D01*
X256610Y198254D01*
X257324Y197324D01*
X258254Y196610D01*
X259338Y196162D01*
X260500Y196009D01*
X261662Y196162D01*
X262746Y196610D01*
X263003Y196808D01*
X263451Y196587D01*
Y194413D01*
X263003Y194192D01*
X262746Y194389D01*
X261662Y194838D01*
X260500Y194991D01*
X259338Y194838D01*
X258254Y194389D01*
X257324Y193676D01*
X256610Y192746D01*
X256162Y191662D01*
X256009Y190500D01*
X256162Y189338D01*
X256610Y188254D01*
X257324Y187324D01*
X257951Y186843D01*
Y180568D01*
X251444Y174062D01*
X249846D01*
X249625Y174510D01*
X249889Y174854D01*
X250338Y175938D01*
X250491Y177100D01*
X250338Y178262D01*
X249889Y179346D01*
X249176Y180276D01*
X248246Y180990D01*
X247162Y181438D01*
X246000Y181591D01*
X245845Y181571D01*
X245624Y182019D01*
X249717Y186112D01*
X250500Y186009D01*
X251662Y186162D01*
X252746Y186610D01*
X253676Y187324D01*
X254390Y188254D01*
X254838Y189338D01*
X254991Y190500D01*
X254838Y191662D01*
X254390Y192746D01*
X253676Y193676D01*
X252746Y194389D01*
X251662Y194838D01*
X250500Y194991D01*
X249338Y194838D01*
X248254Y194389D01*
X247324Y193676D01*
X246610Y192746D01*
X246162Y191662D01*
X246009Y190500D01*
X246112Y189717D01*
X245129Y188734D01*
X244706Y189017D01*
X244838Y189338D01*
X244991Y190500D01*
X244838Y191662D01*
X244390Y192746D01*
X243676Y193676D01*
X242746Y194389D01*
X241662Y194838D01*
X240500Y194991D01*
X239338Y194838D01*
X238254Y194389D01*
X237324Y193676D01*
X236611Y192746D01*
X236162Y191662D01*
X236009Y190500D01*
X236054Y190159D01*
X235359Y189464D01*
X234886Y189697D01*
X234991Y190500D01*
X234838Y191662D01*
X234389Y192746D01*
X233676Y193676D01*
X232746Y194389D01*
X231662Y194838D01*
X230500Y194991D01*
X229338Y194838D01*
X228254Y194389D01*
X227324Y193676D01*
X226610Y192746D01*
X226162Y191662D01*
X226009Y190500D01*
X226162Y189338D01*
X226610Y188254D01*
X227324Y187324D01*
X228254Y186610D01*
X229338Y186162D01*
X230500Y186009D01*
X231303Y186115D01*
X231536Y185641D01*
X196511Y150616D01*
X196049Y150807D01*
Y155695D01*
X206942Y166587D01*
X207725Y166484D01*
X208887Y166637D01*
X209970Y167086D01*
X210900Y167799D01*
X211614Y168730D01*
X212063Y169813D01*
X212216Y170975D01*
X212063Y172138D01*
X211614Y173221D01*
X210900Y174151D01*
X209970Y174865D01*
X208887Y175313D01*
X208172Y175408D01*
X207993Y175935D01*
X212302Y180245D01*
X212855Y181072D01*
X213049Y182047D01*
Y186047D01*
X214953D01*
Y194953D01*
X209211D01*
X209019Y195415D01*
X209717Y196112D01*
X210500Y196009D01*
X211662Y196162D01*
X212746Y196610D01*
X213676Y197324D01*
X214389Y198254D01*
X214838Y199338D01*
X214991Y200500D01*
X214838Y201662D01*
X214389Y202746D01*
X213676Y203676D01*
X212746Y204390D01*
X211662Y204838D01*
X210500Y204991D01*
X209338Y204838D01*
X208254Y204390D01*
X207324Y203676D01*
X206610Y202746D01*
X206162Y201662D01*
X206009Y200500D01*
X206112Y199717D01*
X202511Y196116D01*
X202049Y196307D01*
Y204500D01*
X201855Y205475D01*
X201302Y206302D01*
X184049Y223556D01*
Y361193D01*
X184511Y361384D01*
X186698Y359198D01*
X187524Y358645D01*
X188500Y358451D01*
X198944D01*
X247951Y309444D01*
Y222657D01*
X247324Y222176D01*
X246610Y221246D01*
X246162Y220162D01*
X246009Y219000D01*
X246162Y217838D01*
X246610Y216754D01*
X247324Y215824D01*
X248254Y215110D01*
X249338Y214662D01*
X250500Y214509D01*
X251662Y214662D01*
X252746Y215110D01*
X253676Y215824D01*
X254390Y216754D01*
X254838Y217838D01*
X254991Y219000D01*
X254838Y220162D01*
X254390Y221246D01*
X253676Y222176D01*
X253049Y222657D01*
Y310500D01*
X252855Y311475D01*
X252302Y312302D01*
X201802Y362802D01*
X200975Y363355D01*
X200000Y363549D01*
X189556D01*
X187557Y365547D01*
X187570Y366047D01*
X194953D01*
Y374953D01*
X187549D01*
Y376587D01*
X187997Y376808D01*
X188254Y376610D01*
X189338Y376162D01*
X190500Y376009D01*
X191662Y376162D01*
X192746Y376610D01*
X193676Y377324D01*
X194389Y378254D01*
X194838Y379338D01*
X194991Y380500D01*
X194838Y381662D01*
X194705Y381983D01*
X195129Y382266D01*
X196112Y381283D01*
X196009Y380500D01*
X196162Y379338D01*
X196610Y378254D01*
X197324Y377324D01*
X198254Y376610D01*
X199338Y376162D01*
X200500Y376009D01*
X201662Y376162D01*
X202746Y376610D01*
X203676Y377324D01*
X204390Y378254D01*
X204838Y379338D01*
X204991Y380500D01*
X204838Y381662D01*
X204390Y382746D01*
X203676Y383676D01*
X202746Y384389D01*
X201662Y384838D01*
X200500Y384991D01*
X199717Y384888D01*
X196802Y387802D01*
X195975Y388355D01*
X195000Y388549D01*
X187500D01*
X186524Y388355D01*
X185698Y387802D01*
X183198Y385302D01*
X182645Y384475D01*
X182451Y383500D01*
Y376807D01*
X181989Y376616D01*
X178888Y379717D01*
X178991Y380500D01*
X178838Y381662D01*
X178390Y382746D01*
X177676Y383676D01*
X176746Y384389D01*
X175662Y384838D01*
X174500Y384991D01*
X173338Y384838D01*
X172254Y384389D01*
X171324Y383676D01*
X170610Y382746D01*
X170162Y381662D01*
X170009Y380500D01*
X170162Y379338D01*
X170610Y378254D01*
X171324Y377324D01*
X172254Y376610D01*
X173338Y376162D01*
X174500Y376009D01*
X175283Y376112D01*
X176266Y375129D01*
X175983Y374706D01*
X175662Y374838D01*
X174500Y374991D01*
X173338Y374838D01*
X172254Y374390D01*
X171324Y373676D01*
X170610Y372746D01*
X170162Y371662D01*
X170009Y370500D01*
X170162Y369338D01*
X170610Y368254D01*
X171324Y367324D01*
X171951Y366843D01*
Y351657D01*
X171324Y351176D01*
X170610Y350246D01*
X170162Y349162D01*
X170009Y348000D01*
X170162Y346838D01*
X170610Y345754D01*
X171324Y344824D01*
X172254Y344110D01*
X173338Y343662D01*
X174500Y343509D01*
X175662Y343662D01*
X176746Y344110D01*
X177676Y344824D01*
X178390Y345754D01*
X178451Y345903D01*
X178951Y345803D01*
Y222500D01*
X179145Y221525D01*
X179698Y220698D01*
X196951Y203444D01*
Y198307D01*
X196489Y198116D01*
X194888Y199717D01*
X194991Y200500D01*
X194838Y201662D01*
X194389Y202746D01*
X193676Y203676D01*
X192746Y204390D01*
X191662Y204838D01*
X190500Y204991D01*
X189338Y204838D01*
X188254Y204390D01*
X187324Y203676D01*
X186610Y202746D01*
X186162Y201662D01*
X186009Y200500D01*
X186162Y199338D01*
X186610Y198254D01*
X187324Y197324D01*
X188254Y196610D01*
X189338Y196162D01*
X190500Y196009D01*
X191283Y196112D01*
X192266Y195129D01*
X191983Y194705D01*
X191662Y194838D01*
X190500Y194991D01*
X189338Y194838D01*
X188254Y194389D01*
X187324Y193676D01*
X186610Y192746D01*
X186162Y191662D01*
X186009Y190500D01*
X186162Y189338D01*
X186610Y188254D01*
X187324Y187324D01*
X188254Y186610D01*
X189338Y186162D01*
X190232Y186044D01*
X190411Y185516D01*
X172697Y167802D01*
X167253D01*
X166277Y167608D01*
X165450Y167055D01*
X145198Y146802D01*
X144852Y146285D01*
X144237Y146265D01*
X144076Y146476D01*
X143449Y146957D01*
Y152844D01*
X172302Y181698D01*
X172855Y182525D01*
X173049Y183500D01*
Y186843D01*
X173676Y187324D01*
X174390Y188254D01*
X174838Y189338D01*
X174991Y190500D01*
X174838Y191662D01*
X174390Y192746D01*
X173676Y193676D01*
X172746Y194389D01*
X171662Y194838D01*
X170500Y194991D01*
X169338Y194838D01*
X168254Y194389D01*
X167324Y193676D01*
X166611Y192746D01*
X166162Y191662D01*
X166009Y190500D01*
X166162Y189338D01*
X166611Y188254D01*
X167324Y187324D01*
X167951Y186843D01*
Y184556D01*
X143511Y160116D01*
X143049Y160307D01*
Y186843D01*
X143676Y187324D01*
X144389Y188254D01*
X144838Y189338D01*
X144991Y190500D01*
X144838Y191662D01*
X144389Y192746D01*
X143676Y193676D01*
X142746Y194389D01*
X141662Y194838D01*
X140500Y194991D01*
X139338Y194838D01*
X138254Y194389D01*
X137324Y193676D01*
X136610Y192746D01*
X136162Y191662D01*
X136009Y190500D01*
X136162Y189338D01*
X136610Y188254D01*
X137324Y187324D01*
X137951Y186843D01*
Y174307D01*
X137489Y174116D01*
X131302Y180302D01*
X130475Y180855D01*
X129500Y181049D01*
X120056D01*
X116049Y185056D01*
Y186047D01*
X124953D01*
Y194953D01*
X119652D01*
X119549Y195056D01*
Y195755D01*
X119925Y196084D01*
X120500Y196009D01*
X121662Y196162D01*
X122746Y196610D01*
X123676Y197324D01*
X124390Y198254D01*
X124838Y199338D01*
X124991Y200500D01*
X124838Y201662D01*
X124390Y202746D01*
X124192Y203003D01*
X124413Y203451D01*
X126587D01*
X126808Y203003D01*
X126611Y202746D01*
X126162Y201662D01*
X126009Y200500D01*
X126162Y199338D01*
X126611Y198254D01*
X127324Y197324D01*
X128254Y196610D01*
X129338Y196162D01*
X130500Y196009D01*
X131662Y196162D01*
X132746Y196610D01*
X133676Y197324D01*
X134389Y198254D01*
X134838Y199338D01*
X134991Y200500D01*
X134838Y201662D01*
X134389Y202746D01*
X134192Y203003D01*
X134413Y203451D01*
X136587D01*
X136808Y203003D01*
X136610Y202746D01*
X136162Y201662D01*
X136009Y200500D01*
X136162Y199338D01*
X136610Y198254D01*
X137324Y197324D01*
X138254Y196610D01*
X139338Y196162D01*
X140500Y196009D01*
X141662Y196162D01*
X142746Y196610D01*
X143676Y197324D01*
X144389Y198254D01*
X144838Y199338D01*
X144991Y200500D01*
X144838Y201662D01*
X144389Y202746D01*
X144192Y203003D01*
X144413Y203451D01*
X146587D01*
X146808Y203003D01*
X146610Y202746D01*
X146162Y201662D01*
X146009Y200500D01*
X146162Y199338D01*
X146610Y198254D01*
X147324Y197324D01*
X148254Y196610D01*
X149338Y196162D01*
X150500Y196009D01*
X151662Y196162D01*
X152746Y196610D01*
X153676Y197324D01*
X154390Y198254D01*
X154838Y199338D01*
X154991Y200500D01*
X154838Y201662D01*
X154390Y202746D01*
X154192Y203003D01*
X154413Y203451D01*
X156400D01*
X156591Y203489D01*
X156855Y203064D01*
X156611Y202746D01*
X156162Y201662D01*
X156009Y200500D01*
X156162Y199338D01*
X156611Y198254D01*
X157324Y197324D01*
X158254Y196610D01*
X159338Y196162D01*
X160500Y196009D01*
X161662Y196162D01*
X162746Y196610D01*
X163676Y197324D01*
X164390Y198254D01*
X164838Y199338D01*
X164991Y200500D01*
X164838Y201662D01*
X164390Y202746D01*
X163676Y203676D01*
X162746Y204390D01*
X161662Y204838D01*
X160500Y204991D01*
X159582Y204870D01*
X159349Y205344D01*
X166402Y212398D01*
X166955Y213225D01*
X167149Y214200D01*
Y230000D01*
X166955Y230976D01*
X166402Y231802D01*
X159102Y239102D01*
X158275Y239655D01*
X157300Y239849D01*
X143356D01*
X125902Y257302D01*
X125075Y257855D01*
X124100Y258049D01*
X121238D01*
X121205Y258549D01*
X122062Y258662D01*
X123146Y259110D01*
X124076Y259824D01*
X124790Y260754D01*
X125238Y261838D01*
X125391Y263000D01*
X125238Y264162D01*
X124790Y265246D01*
X124076Y266176D01*
X123146Y266890D01*
X122062Y267338D01*
X120900Y267491D01*
X119738Y267338D01*
X118654Y266890D01*
X117724Y266176D01*
X117243Y265549D01*
X93157D01*
X92676Y266176D01*
X91746Y266890D01*
X90662Y267338D01*
X89500Y267491D01*
X88338Y267338D01*
X87254Y266890D01*
X86324Y266176D01*
X86049Y265817D01*
X85549Y265987D01*
Y271343D01*
X86176Y271824D01*
X86889Y272754D01*
X87338Y273838D01*
X87491Y275000D01*
X87338Y276162D01*
X86889Y277246D01*
X86176Y278176D01*
X85246Y278889D01*
X84162Y279338D01*
X83000Y279491D01*
X82139Y279378D01*
X81906Y279852D01*
X166302Y364248D01*
X166855Y365075D01*
X167049Y366050D01*
Y366843D01*
X167676Y367324D01*
X168389Y368254D01*
X168838Y369338D01*
X168991Y370500D01*
X168838Y371662D01*
X168389Y372746D01*
X167676Y373676D01*
X166746Y374390D01*
X165662Y374838D01*
X164500Y374991D01*
X163338Y374838D01*
X162254Y374390D01*
X161324Y373676D01*
X160610Y372746D01*
X160162Y371662D01*
X160009Y370500D01*
X160162Y369338D01*
X160610Y368254D01*
X161324Y367324D01*
X161502Y367188D01*
X161534Y366689D01*
X147511Y352666D01*
X147049Y352857D01*
Y366843D01*
X147676Y367324D01*
X148389Y368254D01*
X148838Y369338D01*
X148991Y370500D01*
X148838Y371662D01*
X148389Y372746D01*
X147676Y373676D01*
X146746Y374390D01*
X145662Y374838D01*
X144500Y374991D01*
X143338Y374838D01*
X142254Y374390D01*
X141324Y373676D01*
X140611Y372746D01*
X140162Y371662D01*
X140009Y370500D01*
X140162Y369338D01*
X140611Y368254D01*
X141324Y367324D01*
X141951Y366843D01*
Y353338D01*
X141451Y353305D01*
X141338Y354162D01*
X140890Y355246D01*
X140176Y356176D01*
X139246Y356890D01*
X138162Y357338D01*
X137000Y357491D01*
X135838Y357338D01*
X134754Y356890D01*
X133824Y356176D01*
X133110Y355246D01*
X132662Y354162D01*
X132509Y353000D01*
X132612Y352217D01*
X63411Y283016D01*
X62949Y283207D01*
Y295344D01*
X133717Y366112D01*
X134500Y366009D01*
X135662Y366162D01*
X136746Y366611D01*
X137676Y367324D01*
X138390Y368254D01*
X138838Y369338D01*
X138991Y370500D01*
X138838Y371662D01*
X138390Y372746D01*
X137676Y373676D01*
X136746Y374390D01*
X135662Y374838D01*
X134500Y374991D01*
X133338Y374838D01*
X132254Y374390D01*
X131324Y373676D01*
X130611Y372746D01*
X130162Y371662D01*
X130009Y370500D01*
X130112Y369717D01*
X129129Y368734D01*
X128706Y369017D01*
X128838Y369338D01*
X128991Y370500D01*
X128838Y371662D01*
X128390Y372746D01*
X127676Y373676D01*
X126746Y374390D01*
X125662Y374838D01*
X124500Y374991D01*
X123338Y374838D01*
X122254Y374390D01*
X121324Y373676D01*
X120610Y372746D01*
X120162Y371662D01*
X120009Y370500D01*
X120162Y369338D01*
X120610Y368254D01*
X121324Y367324D01*
X122254Y366611D01*
X123338Y366162D01*
X124500Y366009D01*
X125662Y366162D01*
X125983Y366295D01*
X126266Y365871D01*
X59511Y299116D01*
X59049Y299307D01*
Y311444D01*
X113717Y366112D01*
X114500Y366009D01*
X115662Y366162D01*
X116746Y366611D01*
X117676Y367324D01*
X118389Y368254D01*
X118838Y369338D01*
X118991Y370500D01*
X118838Y371662D01*
X118389Y372746D01*
X117676Y373676D01*
X116746Y374390D01*
X115662Y374838D01*
X114500Y374991D01*
X113338Y374838D01*
X112254Y374390D01*
X111324Y373676D01*
X110610Y372746D01*
X110162Y371662D01*
X110009Y370500D01*
X110112Y369717D01*
X109129Y368734D01*
X108705Y369017D01*
X108838Y369338D01*
X108991Y370500D01*
X108838Y371662D01*
X108389Y372746D01*
X107676Y373676D01*
X106746Y374390D01*
X105662Y374838D01*
X104500Y374991D01*
X103338Y374838D01*
X102254Y374390D01*
X101324Y373676D01*
X100610Y372746D01*
X100162Y371662D01*
X100009Y370500D01*
X100162Y369338D01*
X100610Y368254D01*
X101324Y367324D01*
X102254Y366611D01*
X103338Y366162D01*
X104500Y366009D01*
X105662Y366162D01*
X105983Y366295D01*
X106266Y365871D01*
X55149Y314754D01*
X54649Y314961D01*
Y365043D01*
X55276Y365524D01*
X55989Y366454D01*
X56438Y367538D01*
X56591Y368700D01*
X56438Y369862D01*
X55989Y370946D01*
X55276Y371876D01*
X54346Y372589D01*
X53262Y373038D01*
X52100Y373191D01*
X50938Y373038D01*
X49854Y372589D01*
X48924Y371876D01*
X48822Y371743D01*
X48349Y371904D01*
Y382344D01*
X49456Y383451D01*
X67363D01*
X67585Y383003D01*
X67311Y382646D01*
X66862Y381562D01*
X66709Y380400D01*
X66862Y379238D01*
X67311Y378154D01*
X68024Y377224D01*
X68651Y376743D01*
Y340256D01*
X63083Y334688D01*
X62300Y334791D01*
X61138Y334638D01*
X60054Y334190D01*
X59124Y333476D01*
X58411Y332546D01*
X57962Y331462D01*
X57809Y330300D01*
X57962Y329138D01*
X58411Y328054D01*
X59124Y327124D01*
X60054Y326411D01*
X61138Y325962D01*
X62300Y325809D01*
X63462Y325962D01*
X64546Y326411D01*
X65476Y327124D01*
X66189Y328054D01*
X66638Y329138D01*
X66791Y330300D01*
X66688Y331083D01*
X73002Y337398D01*
X73555Y338225D01*
X73749Y339200D01*
Y376743D01*
X74376Y377224D01*
X75090Y378154D01*
X75538Y379238D01*
X75691Y380400D01*
X75538Y381562D01*
X75090Y382646D01*
X74815Y383003D01*
X75037Y383451D01*
X80587D01*
X80808Y383003D01*
X80611Y382746D01*
X80162Y381662D01*
X80009Y380500D01*
X80162Y379338D01*
X80611Y378254D01*
X81324Y377324D01*
X82254Y376610D01*
X83338Y376162D01*
X84500Y376009D01*
X85662Y376162D01*
X86746Y376610D01*
X87676Y377324D01*
X88389Y378254D01*
X88838Y379338D01*
X88991Y380500D01*
X88838Y381662D01*
X88705Y381983D01*
X89129Y382266D01*
X90112Y381283D01*
X90009Y380500D01*
X90162Y379338D01*
X90610Y378254D01*
X91324Y377324D01*
X92254Y376610D01*
X93338Y376162D01*
X94500Y376009D01*
X95662Y376162D01*
X96746Y376610D01*
X97676Y377324D01*
X98390Y378254D01*
X98838Y379338D01*
X98991Y380500D01*
X98838Y381662D01*
X98706Y381983D01*
X99129Y382266D01*
X100112Y381283D01*
X100009Y380500D01*
X100162Y379338D01*
X100610Y378254D01*
X101324Y377324D01*
X102254Y376610D01*
X103338Y376162D01*
X104500Y376009D01*
X105662Y376162D01*
X106746Y376610D01*
X107676Y377324D01*
X108389Y378254D01*
X108838Y379338D01*
X108991Y380500D01*
X108838Y381662D01*
X108389Y382746D01*
X107676Y383676D01*
X106746Y384389D01*
X105662Y384838D01*
X104500Y384991D01*
X103717Y384888D01*
X96102Y392502D01*
X95275Y393055D01*
X94300Y393249D01*
X45100D01*
X44124Y393055D01*
X43642Y392733D01*
X43176Y393022D01*
X43239Y393500D01*
X43084Y394675D01*
X42631Y395769D01*
X41909Y396709D01*
X41595Y396951D01*
X41764Y397451D01*
X113944D01*
X126266Y385129D01*
X125983Y384705D01*
X125662Y384838D01*
X124500Y384991D01*
X123338Y384838D01*
X122254Y384389D01*
X121324Y383676D01*
X120610Y382746D01*
X120162Y381662D01*
X120009Y380500D01*
X120162Y379338D01*
X120610Y378254D01*
X121324Y377324D01*
X122254Y376610D01*
X123338Y376162D01*
X124500Y376009D01*
X125662Y376162D01*
X126746Y376610D01*
X127676Y377324D01*
X128390Y378254D01*
X128838Y379338D01*
X128991Y380500D01*
X128838Y381662D01*
X128706Y381983D01*
X129129Y382266D01*
X130112Y381283D01*
X130009Y380500D01*
X130162Y379338D01*
X130611Y378254D01*
X131324Y377324D01*
X132254Y376610D01*
X133338Y376162D01*
X134500Y376009D01*
X135662Y376162D01*
X136746Y376610D01*
X137676Y377324D01*
X138390Y378254D01*
X138838Y379338D01*
X138991Y380500D01*
X138838Y381662D01*
X138390Y382746D01*
X137676Y383676D01*
X136746Y384389D01*
X135662Y384838D01*
X134500Y384991D01*
X133717Y384888D01*
X118116Y400489D01*
X118307Y400951D01*
X130444D01*
X146266Y385129D01*
X145983Y384705D01*
X145662Y384838D01*
X144500Y384991D01*
X143338Y384838D01*
X142254Y384389D01*
X141324Y383676D01*
X140611Y382746D01*
X140162Y381662D01*
X140009Y380500D01*
X140162Y379338D01*
X140611Y378254D01*
X141324Y377324D01*
X142254Y376610D01*
X143338Y376162D01*
X144500Y376009D01*
X145662Y376162D01*
X146746Y376610D01*
X147676Y377324D01*
X148389Y378254D01*
X148838Y379338D01*
X148991Y380500D01*
X148838Y381662D01*
X148705Y381983D01*
X149129Y382266D01*
X150112Y381283D01*
X150009Y380500D01*
X150162Y379338D01*
X150610Y378254D01*
X151324Y377324D01*
X152254Y376610D01*
X153338Y376162D01*
X154500Y376009D01*
X155662Y376162D01*
X156746Y376610D01*
X157676Y377324D01*
X158389Y378254D01*
X158838Y379338D01*
X158991Y380500D01*
X158838Y381662D01*
X158705Y381983D01*
X159129Y382266D01*
X160112Y381283D01*
X160009Y380500D01*
X160162Y379338D01*
X160610Y378254D01*
X161324Y377324D01*
X162254Y376610D01*
X163338Y376162D01*
X164500Y376009D01*
X165662Y376162D01*
X166746Y376610D01*
X167676Y377324D01*
X168389Y378254D01*
X168838Y379338D01*
X168991Y380500D01*
X168838Y381662D01*
X168389Y382746D01*
X167676Y383676D01*
X166746Y384389D01*
X165662Y384838D01*
X164500Y384991D01*
X163717Y384888D01*
X137402Y411202D01*
X136575Y411755D01*
X135600Y411949D01*
X30000D01*
X29024Y411755D01*
X28198Y411202D01*
X21998Y405002D01*
X21445Y404176D01*
X21251Y403200D01*
Y297700D01*
X21445Y296725D01*
X21998Y295898D01*
X26779Y291116D01*
X26111Y290246D01*
X25662Y289162D01*
X25509Y288000D01*
X25662Y286838D01*
X26111Y285754D01*
X26824Y284824D01*
X27754Y284110D01*
X28838Y283662D01*
X30000Y283509D01*
X31162Y283662D01*
X32246Y284110D01*
X33176Y284824D01*
X33889Y285754D01*
X34338Y286838D01*
X34491Y288000D01*
X34456Y288270D01*
X34904Y288491D01*
X35551Y287844D01*
Y201773D01*
X35278Y201549D01*
X26271D01*
X26004Y202049D01*
X26255Y202425D01*
X26449Y203400D01*
Y242943D01*
X27076Y243424D01*
X27790Y244354D01*
X28238Y245438D01*
X28391Y246600D01*
X28238Y247762D01*
X27790Y248846D01*
X27076Y249776D01*
X26146Y250489D01*
X25062Y250938D01*
X23900Y251091D01*
X22738Y250938D01*
X21654Y250489D01*
X20724Y249776D01*
X20010Y248846D01*
X19562Y247762D01*
X19409Y246600D01*
X19562Y245438D01*
X20010Y244354D01*
X20724Y243424D01*
X21351Y242943D01*
Y204456D01*
X7198Y190302D01*
X6645Y189476D01*
X6451Y188500D01*
Y40773D01*
X6324Y40676D01*
X5610Y39746D01*
X5162Y38662D01*
X5009Y37500D01*
X5162Y36338D01*
X5610Y35254D01*
X6324Y34324D01*
X7254Y33610D01*
X8338Y33162D01*
X9500Y33009D01*
X10662Y33162D01*
X11746Y33610D01*
X12003Y33808D01*
X12451Y33587D01*
Y30722D01*
X12645Y29746D01*
X13198Y28919D01*
X16919Y25198D01*
X17215Y25000D01*
X17063Y24500D01*
X4000D01*
X3001Y417646D01*
X3354Y418000D01*
X190295D01*
X190416Y417515D01*
X190146Y417371D01*
X188958Y416396D01*
X187984Y415208D01*
X187260Y413854D01*
X186814Y412383D01*
X186663Y410854D01*
X186814Y409326D01*
X187260Y407855D01*
X187984Y406500D01*
X188958Y405313D01*
X190146Y404338D01*
X191501Y403614D01*
X192971Y403168D01*
X194500Y403018D01*
X196029Y403168D01*
X197499Y403614D01*
X198854Y404338D01*
X200042Y405313D01*
X201016Y406500D01*
X201740Y407855D01*
X202186Y409326D01*
X202337Y410854D01*
X202186Y412383D01*
X201740Y413854D01*
X201016Y415208D01*
X200042Y416396D01*
X198854Y417371D01*
X198584Y417515D01*
X198705Y418000D01*
X328000D01*
Y25000D01*
D02*
G37*
%LPC*%
G36*
X170500Y204991D02*
X169338Y204838D01*
X168254Y204390D01*
X167324Y203676D01*
X166611Y202746D01*
X166162Y201662D01*
X166009Y200500D01*
X166162Y199338D01*
X166611Y198254D01*
X167324Y197324D01*
X168254Y196610D01*
X169338Y196162D01*
X170500Y196009D01*
X171662Y196162D01*
X172746Y196610D01*
X173676Y197324D01*
X174390Y198254D01*
X174838Y199338D01*
X174991Y200500D01*
X174838Y201662D01*
X174390Y202746D01*
X173676Y203676D01*
X172746Y204390D01*
X171662Y204838D01*
X170500Y204991D01*
D02*
G37*
G36*
X220500Y194991D02*
X219338Y194838D01*
X218254Y194389D01*
X217324Y193676D01*
X216611Y192746D01*
X216162Y191662D01*
X216009Y190500D01*
X216162Y189338D01*
X216611Y188254D01*
X217324Y187324D01*
X218254Y186610D01*
X219338Y186162D01*
X220500Y186009D01*
X221662Y186162D01*
X222746Y186610D01*
X223676Y187324D01*
X224390Y188254D01*
X224838Y189338D01*
X224991Y190500D01*
X224838Y191662D01*
X224390Y192746D01*
X223676Y193676D01*
X222746Y194389D01*
X221662Y194838D01*
X220500Y194991D01*
D02*
G37*
G36*
Y204991D02*
X219338Y204838D01*
X218254Y204390D01*
X217324Y203676D01*
X216611Y202746D01*
X216162Y201662D01*
X216009Y200500D01*
X216162Y199338D01*
X216611Y198254D01*
X217324Y197324D01*
X218254Y196610D01*
X219338Y196162D01*
X220500Y196009D01*
X221662Y196162D01*
X222746Y196610D01*
X223676Y197324D01*
X224390Y198254D01*
X224838Y199338D01*
X224991Y200500D01*
X224838Y201662D01*
X224390Y202746D01*
X223676Y203676D01*
X222746Y204390D01*
X221662Y204838D01*
X220500Y204991D01*
D02*
G37*
G36*
X180500D02*
X179338Y204838D01*
X178254Y204390D01*
X177324Y203676D01*
X176611Y202746D01*
X176162Y201662D01*
X176009Y200500D01*
X176162Y199338D01*
X176611Y198254D01*
X177324Y197324D01*
X178254Y196610D01*
X179338Y196162D01*
X180500Y196009D01*
X181662Y196162D01*
X182746Y196610D01*
X183676Y197324D01*
X184389Y198254D01*
X184838Y199338D01*
X184991Y200500D01*
X184838Y201662D01*
X184389Y202746D01*
X183676Y203676D01*
X182746Y204390D01*
X181662Y204838D01*
X180500Y204991D01*
D02*
G37*
G36*
Y194991D02*
X179338Y194838D01*
X178254Y194389D01*
X177324Y193676D01*
X176611Y192746D01*
X176162Y191662D01*
X176009Y190500D01*
X176162Y189338D01*
X176611Y188254D01*
X177324Y187324D01*
X178254Y186610D01*
X179338Y186162D01*
X180500Y186009D01*
X181662Y186162D01*
X182746Y186610D01*
X183676Y187324D01*
X184389Y188254D01*
X184838Y189338D01*
X184991Y190500D01*
X184838Y191662D01*
X184389Y192746D01*
X183676Y193676D01*
X182746Y194389D01*
X181662Y194838D01*
X180500Y194991D01*
D02*
G37*
G36*
X130500D02*
X129338Y194838D01*
X128254Y194389D01*
X127324Y193676D01*
X126611Y192746D01*
X126162Y191662D01*
X126009Y190500D01*
X126162Y189338D01*
X126611Y188254D01*
X127324Y187324D01*
X128254Y186610D01*
X129338Y186162D01*
X130500Y186009D01*
X131662Y186162D01*
X132746Y186610D01*
X133676Y187324D01*
X134389Y188254D01*
X134838Y189338D01*
X134991Y190500D01*
X134838Y191662D01*
X134389Y192746D01*
X133676Y193676D01*
X132746Y194389D01*
X131662Y194838D01*
X130500Y194991D01*
D02*
G37*
G36*
X57419Y104471D02*
X53181D01*
X53256Y103904D01*
X53764Y102677D01*
X54572Y101624D01*
X55626Y100815D01*
X56853Y100307D01*
X57419Y100232D01*
Y104471D01*
D02*
G37*
G36*
X160500Y194991D02*
X159338Y194838D01*
X158254Y194389D01*
X157324Y193676D01*
X156611Y192746D01*
X156162Y191662D01*
X156009Y190500D01*
X156162Y189338D01*
X156611Y188254D01*
X157324Y187324D01*
X158254Y186610D01*
X159338Y186162D01*
X160500Y186009D01*
X161662Y186162D01*
X162746Y186610D01*
X163676Y187324D01*
X164390Y188254D01*
X164838Y189338D01*
X164991Y190500D01*
X164838Y191662D01*
X164390Y192746D01*
X163676Y193676D01*
X162746Y194389D01*
X161662Y194838D01*
X160500Y194991D01*
D02*
G37*
G36*
X150500D02*
X149338Y194838D01*
X148254Y194389D01*
X147324Y193676D01*
X146610Y192746D01*
X146162Y191662D01*
X146009Y190500D01*
X146162Y189338D01*
X146610Y188254D01*
X147324Y187324D01*
X148254Y186610D01*
X149338Y186162D01*
X150500Y186009D01*
X151662Y186162D01*
X152746Y186610D01*
X153676Y187324D01*
X154390Y188254D01*
X154838Y189338D01*
X154991Y190500D01*
X154838Y191662D01*
X154390Y192746D01*
X153676Y193676D01*
X152746Y194389D01*
X151662Y194838D01*
X150500Y194991D01*
D02*
G37*
G36*
X292450Y397250D02*
X288808D01*
X288862Y396838D01*
X289311Y395754D01*
X290024Y394824D01*
X290954Y394110D01*
X292038Y393662D01*
X292450Y393608D01*
Y397250D01*
D02*
G37*
G36*
X114500Y384991D02*
X113338Y384838D01*
X112254Y384389D01*
X111324Y383676D01*
X110610Y382746D01*
X110162Y381662D01*
X110009Y380500D01*
X110162Y379338D01*
X110610Y378254D01*
X111324Y377324D01*
X112254Y376610D01*
X113338Y376162D01*
X114500Y376009D01*
X115662Y376162D01*
X116746Y376610D01*
X117676Y377324D01*
X118389Y378254D01*
X118838Y379338D01*
X118991Y380500D01*
X118838Y381662D01*
X118389Y382746D01*
X117676Y383676D01*
X116746Y384389D01*
X115662Y384838D01*
X114500Y384991D01*
D02*
G37*
G36*
X297592Y397250D02*
X293950D01*
Y393608D01*
X294362Y393662D01*
X295446Y394110D01*
X296376Y394824D01*
X297090Y395754D01*
X297538Y396838D01*
X297592Y397250D01*
D02*
G37*
G36*
X293950Y402392D02*
Y398750D01*
X297592D01*
X297538Y399162D01*
X297090Y400246D01*
X296376Y401176D01*
X295446Y401890D01*
X294362Y402338D01*
X293950Y402392D01*
D02*
G37*
G36*
X292450D02*
X292038Y402338D01*
X290954Y401890D01*
X290024Y401176D01*
X289311Y400246D01*
X288862Y399162D01*
X288808Y398750D01*
X292450D01*
Y402392D01*
D02*
G37*
G36*
X88953Y374953D02*
X80047D01*
Y366047D01*
X88953D01*
Y374953D01*
D02*
G37*
G36*
X194500Y253337D02*
X192971Y253186D01*
X191501Y252740D01*
X190146Y252016D01*
X188958Y251042D01*
X187984Y249854D01*
X187260Y248499D01*
X186814Y247029D01*
X186663Y245500D01*
X186814Y243971D01*
X187260Y242501D01*
X187984Y241146D01*
X188958Y239958D01*
X190146Y238984D01*
X191501Y238260D01*
X192971Y237814D01*
X194500Y237663D01*
X196029Y237814D01*
X197499Y238260D01*
X198854Y238984D01*
X200042Y239958D01*
X201016Y241146D01*
X201740Y242501D01*
X202186Y243971D01*
X202337Y245500D01*
X202186Y247029D01*
X201740Y248499D01*
X201016Y249854D01*
X200042Y251042D01*
X198854Y252016D01*
X197499Y252740D01*
X196029Y253186D01*
X194500Y253337D01*
D02*
G37*
G36*
X196000Y233591D02*
X194838Y233438D01*
X193754Y232990D01*
X192824Y232276D01*
X192111Y231346D01*
X191662Y230262D01*
X191509Y229100D01*
X191662Y227938D01*
X192111Y226854D01*
X192824Y225924D01*
X193754Y225210D01*
X194838Y224762D01*
X196000Y224609D01*
X196783Y224712D01*
X202651Y218844D01*
Y214657D01*
X202024Y214176D01*
X201310Y213246D01*
X200862Y212162D01*
X200709Y211000D01*
X200862Y209838D01*
X201310Y208754D01*
X202024Y207824D01*
X202954Y207111D01*
X204038Y206662D01*
X205200Y206509D01*
X206362Y206662D01*
X207446Y207111D01*
X208376Y207824D01*
X209089Y208754D01*
X209538Y209838D01*
X209691Y211000D01*
X209538Y212162D01*
X209089Y213246D01*
X208376Y214176D01*
X207749Y214657D01*
Y219900D01*
X207555Y220876D01*
X207002Y221702D01*
X200388Y228317D01*
X200491Y229100D01*
X200338Y230262D01*
X199890Y231346D01*
X199176Y232276D01*
X198246Y232990D01*
X197162Y233438D01*
X196000Y233591D01*
D02*
G37*
G36*
X94500Y374991D02*
X93338Y374838D01*
X92254Y374390D01*
X91324Y373676D01*
X90610Y372746D01*
X90162Y371662D01*
X90009Y370500D01*
X90162Y369338D01*
X90610Y368254D01*
X91324Y367324D01*
X92254Y366611D01*
X93338Y366162D01*
X94500Y366009D01*
X95662Y366162D01*
X96746Y366611D01*
X97676Y367324D01*
X98390Y368254D01*
X98838Y369338D01*
X98991Y370500D01*
X98838Y371662D01*
X98390Y372746D01*
X97676Y373676D01*
X96746Y374390D01*
X95662Y374838D01*
X94500Y374991D01*
D02*
G37*
G36*
X230500D02*
X229338Y374838D01*
X228254Y374390D01*
X227324Y373676D01*
X226610Y372746D01*
X226162Y371662D01*
X226009Y370500D01*
X226162Y369338D01*
X226610Y368254D01*
X227324Y367324D01*
X228254Y366611D01*
X229338Y366162D01*
X230500Y366009D01*
X231662Y366162D01*
X232746Y366611D01*
X233676Y367324D01*
X234389Y368254D01*
X234838Y369338D01*
X234991Y370500D01*
X234838Y371662D01*
X234389Y372746D01*
X233676Y373676D01*
X232746Y374390D01*
X231662Y374838D01*
X230500Y374991D01*
D02*
G37*
G36*
X154500D02*
X153338Y374838D01*
X152254Y374390D01*
X151324Y373676D01*
X150610Y372746D01*
X150162Y371662D01*
X150009Y370500D01*
X150162Y369338D01*
X150610Y368254D01*
X151324Y367324D01*
X152254Y366611D01*
X153338Y366162D01*
X154500Y366009D01*
X155662Y366162D01*
X156746Y366611D01*
X157676Y367324D01*
X158389Y368254D01*
X158838Y369338D01*
X158991Y370500D01*
X158838Y371662D01*
X158389Y372746D01*
X157676Y373676D01*
X156746Y374390D01*
X155662Y374838D01*
X154500Y374991D01*
D02*
G37*
%LPD*%
D10*
X241000Y10500D02*
D03*
X235000D02*
D03*
X229000D02*
D03*
X223000D02*
D03*
X217000D02*
D03*
X211000D02*
D03*
X205000D02*
D03*
X199000D02*
D03*
X193000D02*
D03*
X187000D02*
D03*
X181000D02*
D03*
X175000D02*
D03*
X169000D02*
D03*
X163000D02*
D03*
X157000D02*
D03*
X151000D02*
D03*
X145000D02*
D03*
X139000D02*
D03*
X133000D02*
D03*
X127000D02*
D03*
X121000D02*
D03*
X115000D02*
D03*
X109000D02*
D03*
X103000D02*
D03*
X97000D02*
D03*
X91000D02*
D03*
X85000D02*
D03*
X79000D02*
D03*
X73000D02*
D03*
X67000D02*
D03*
X61000D02*
D03*
X55000D02*
D03*
X49000D02*
D03*
D11*
X164500Y366050D02*
Y370500D01*
X70900Y272450D02*
X164500Y366050D01*
X70900Y212876D02*
Y272450D01*
X144500Y351000D02*
Y370500D01*
X67400Y273900D02*
X144500Y351000D01*
X67400Y211426D02*
Y273900D01*
X111547Y147547D02*
X115500Y151500D01*
X108047Y125453D02*
Y149547D01*
X104547Y124003D02*
Y150997D01*
X101047Y137047D02*
Y176603D01*
X97547Y138497D02*
Y174453D01*
X94047Y134997D02*
X97547Y138497D01*
X108047Y149547D02*
X112000Y153500D01*
X104547Y150997D02*
X108500Y154950D01*
X97547Y180104D02*
X101047Y176603D01*
X94047Y177953D02*
X97547Y174453D01*
X104547Y124003D02*
X109500Y119050D01*
X108047Y125453D02*
X120000Y113500D01*
X111547Y126953D02*
X123500Y115000D01*
X111547Y126953D02*
Y147547D01*
X97547Y133547D02*
X101047Y137047D01*
X39500Y174500D02*
X46178D01*
X28500Y163500D02*
X39500Y174500D01*
X28500Y134500D02*
Y163500D01*
X36000Y178000D02*
X44728D01*
X23000Y165000D02*
X36000Y178000D01*
X23000Y73000D02*
Y165000D01*
X34000Y181500D02*
X43278D01*
X19500Y167000D02*
X34000Y181500D01*
X19500Y55500D02*
Y167000D01*
X75500Y167571D02*
Y175450D01*
X74500Y176450D02*
Y204326D01*
Y176450D02*
X75500Y175450D01*
X72000Y169021D02*
Y174000D01*
X71000Y175000D02*
X72000Y174000D01*
X71000Y175000D02*
Y202876D01*
X82500Y166211D02*
Y201276D01*
Y166211D02*
X83953Y164759D01*
Y160241D02*
Y164759D01*
X82500Y158789D02*
X83953Y160241D01*
X82500Y84400D02*
Y158789D01*
X78095Y162500D02*
X78500D01*
X77500Y161906D02*
X78095Y162500D01*
X72000Y164071D02*
X75500Y167571D01*
X72000Y160929D02*
Y164071D01*
Y160929D02*
X75500Y157429D01*
X68000Y159979D02*
Y165021D01*
X64500Y158529D02*
Y166471D01*
X61000Y154500D02*
Y167920D01*
X68000Y159979D02*
X72000Y155979D01*
X68000Y165021D02*
X72000Y169021D01*
X64500Y158529D02*
X68500Y154530D01*
X64500Y166471D02*
X67500Y169471D01*
X61000Y154500D02*
X65000Y150500D01*
X61000Y167920D02*
X64000Y170920D01*
X46000Y48500D02*
Y67500D01*
X42500Y45000D02*
X46000Y48500D01*
X47500Y77071D02*
Y79500D01*
X33500Y63071D02*
X47500Y77071D01*
X40000Y77500D02*
Y78500D01*
X32000Y69500D02*
X40000Y77500D01*
X33000Y94000D02*
X47500Y79500D01*
X33000Y94000D02*
Y124500D01*
X47500Y32500D02*
X55000Y25000D01*
X21000Y32500D02*
X47500D01*
X23900Y203400D02*
Y246600D01*
X9000Y188500D02*
X23900Y203400D01*
X9000Y38000D02*
Y188500D01*
X23000Y73000D02*
X26500Y69500D01*
X19500Y55500D02*
X30000Y45000D01*
X16000Y49000D02*
X25000Y40000D01*
X16000Y49000D02*
Y184400D01*
X25100Y193500D01*
X12500Y185850D02*
X25650Y199000D01*
X12500Y47550D02*
Y185850D01*
Y47550D02*
X15000Y45050D01*
X9000Y38000D02*
X9500Y37500D01*
X15000Y30722D02*
Y45050D01*
X35278Y199000D02*
X41000Y193278D01*
Y187000D02*
Y193278D01*
X25650Y199000D02*
X35278D01*
X15000Y30722D02*
X18722Y27000D01*
X45000D01*
X49000Y23000D01*
X291500Y376000D02*
X291600D01*
X303900Y89900D02*
Y387300D01*
X241000Y27000D02*
X303900Y89900D01*
X293200Y398000D02*
X303900Y387300D01*
X236000Y386000D02*
X271100D01*
X277100Y380000D01*
X278100Y390000D02*
X279164Y388936D01*
X230000Y390000D02*
X278100D01*
X223700Y393700D02*
X282300D01*
X279164Y388936D02*
X281986Y386114D01*
X279164Y388936D02*
X279164D01*
X33500Y53000D02*
Y63071D01*
X26500Y69500D02*
X32000D01*
X53500Y42500D02*
Y63500D01*
X51500Y40500D02*
X53500Y42500D01*
X59500Y47000D02*
Y65323D01*
X61600Y68173D02*
Y74000D01*
X68600Y71072D02*
X72000Y67672D01*
X68600Y71072D02*
Y88178D01*
X65100Y69622D02*
X68500Y66222D01*
X65100Y69622D02*
Y89627D01*
X72100Y72522D02*
Y77078D01*
Y72522D02*
X76000Y68622D01*
X56822Y71000D02*
X58100Y69722D01*
Y66723D02*
Y69722D01*
Y66723D02*
X59500Y65323D01*
X61600Y68173D02*
X63000Y66773D01*
Y50500D02*
Y66773D01*
Y50500D02*
X65000Y48500D01*
X59500Y47000D02*
X61500Y45000D01*
X72736Y77714D02*
Y77714D01*
X72100Y77078D02*
X72736Y77714D01*
X59100Y76500D02*
X61600Y74000D01*
X72100Y78349D02*
X72736Y77714D01*
X72100Y78349D02*
Y86728D01*
X32000Y138778D02*
Y149000D01*
X30000Y45000D02*
X42500D01*
X61500Y45000D02*
X75500D01*
X78000Y42500D01*
Y36000D02*
Y42500D01*
X73000Y23000D02*
X85000Y35000D01*
X79000Y24000D02*
X88500Y33500D01*
X85000Y35000D02*
Y55657D01*
X88500Y33500D02*
Y53500D01*
X73000Y10500D02*
Y23000D01*
X79000Y10500D02*
Y24000D01*
X85000Y55657D02*
X86600Y57257D01*
X88500Y53500D02*
X90100Y55100D01*
Y77500D01*
X86600Y57257D02*
Y82600D01*
X94000Y42500D02*
X94150Y42650D01*
X101000Y68443D02*
X103500Y70943D01*
X101000Y40300D02*
Y68443D01*
X85000Y24300D02*
X101000Y40300D01*
X67000Y10500D02*
Y25000D01*
X51500Y40500D02*
X67000Y25000D01*
X61000Y10500D02*
Y25000D01*
X46000Y40000D02*
X61000Y25000D01*
X25000Y40000D02*
X46000D01*
X65000Y48500D02*
X73300D01*
X53000Y74222D02*
Y78778D01*
X56222Y82000D02*
X56500D01*
X53000Y78778D02*
X56222Y82000D01*
X56500D02*
Y85977D01*
X65000Y94477D01*
X75600Y80722D02*
Y85278D01*
X65000Y94477D02*
Y150500D01*
X65100Y89627D02*
X68500Y93027D01*
X68600Y88178D02*
X72000Y91578D01*
X72100Y86728D02*
X75500Y90128D01*
X78822Y88500D02*
X79000D01*
X75600Y85278D02*
X78822Y88500D01*
X60500Y177500D02*
Y198527D01*
X32000Y149000D02*
X60500Y177500D01*
X68500Y93027D02*
Y154530D01*
X72000Y91578D02*
Y155979D01*
X75500Y90128D02*
Y157429D01*
X79000Y88500D02*
Y160406D01*
X81100Y83000D02*
X82500Y84400D01*
X70900Y212876D02*
X82500Y201276D01*
X77500Y161906D02*
X79000Y160406D01*
X67400Y211426D02*
X74500Y204326D01*
X63900Y209976D02*
X71000Y202876D01*
X64000Y170920D02*
Y199977D01*
X67500Y169471D02*
Y201426D01*
X68500Y57707D02*
Y66222D01*
X72000Y61157D02*
Y67672D01*
Y61157D02*
X74800Y58357D01*
X68500Y57707D02*
X69272Y56935D01*
X76000Y64700D02*
Y68622D01*
Y64700D02*
X80400Y60300D01*
X75600Y80722D02*
X78822Y77500D01*
X79000D01*
Y76200D02*
Y77500D01*
X77600Y74800D02*
X79000Y76200D01*
X104547Y193892D02*
Y207108D01*
X108047Y195342D02*
Y205658D01*
X111547Y204208D02*
X113500Y206161D01*
X111547Y196792D02*
Y204208D01*
X115047Y198241D02*
Y202759D01*
X117000Y204711D01*
X101047Y216047D02*
X110500Y225500D01*
X104547Y207108D02*
X106500Y209061D01*
X108047Y205658D02*
X110000Y207611D01*
X106500Y209061D02*
Y211000D01*
X110000Y207611D02*
Y208400D01*
X113500Y206161D02*
Y206950D01*
X117000Y204711D02*
Y205500D01*
X117500Y206000D01*
X113500Y206950D02*
X116050Y209500D01*
X110000Y208400D02*
X114601Y213000D01*
X106500Y211000D02*
X114500Y219000D01*
X73300Y48500D02*
X74800Y50000D01*
Y58357D01*
X56222Y71000D02*
X56822D01*
X53000Y74222D02*
X56222Y71000D01*
X58500Y76500D02*
X59100D01*
X29000D02*
Y127222D01*
X34000Y132222D01*
X32000Y138778D02*
X34000Y136778D01*
Y132222D02*
Y136778D01*
X69272Y54200D02*
Y56935D01*
X85000Y10500D02*
Y24300D01*
X91000Y23550D02*
X104800Y37350D01*
X91000Y10500D02*
Y23550D01*
X97000Y24600D02*
X108425Y36025D01*
X97000Y10500D02*
Y24600D01*
X79900Y234700D02*
X80000Y234600D01*
Y217700D02*
Y234600D01*
X89000Y232000D02*
Y232100D01*
X94400Y237500D01*
X74400Y214325D02*
Y240206D01*
X63900Y209976D02*
Y279900D01*
X60400Y208526D02*
Y296400D01*
Y208526D02*
X67500Y201426D01*
X74400Y240206D02*
X83194Y249000D01*
X63900Y279900D02*
X137000Y353000D01*
X60400Y296400D02*
X134500Y370500D01*
X34500Y302500D02*
Y389922D01*
X83000Y257500D02*
Y275000D01*
X240000Y190500D02*
X240500D01*
X197000Y147500D02*
X240000Y190500D01*
X197000Y107000D02*
Y147500D01*
X114500Y219000D02*
X117500D01*
X114601Y213000D02*
X126950D01*
X116050Y209500D02*
X151200D01*
X117500Y206000D02*
X156400D01*
X164600Y214200D01*
X87900Y220300D02*
X98200Y230600D01*
X117600D01*
X113000Y237500D02*
X117000Y241500D01*
X94400Y237500D02*
X113000D01*
X129500Y178500D02*
X136500Y171500D01*
X135400Y144700D02*
Y146350D01*
X131600Y140900D02*
X135400Y144700D01*
X117500Y230700D02*
Y233000D01*
Y230700D02*
X117600Y230600D01*
X83194Y249000D02*
X120000D01*
X85000Y255500D02*
X124100D01*
X142300Y237300D01*
X83000Y257500D02*
X85000Y255500D01*
X129450Y215500D02*
X138500D01*
X110500Y225500D02*
X145500D01*
X126950Y213000D02*
X129450Y215500D01*
X142300Y237300D02*
X157300D01*
X164600Y230000D01*
Y214200D02*
Y230000D01*
X57000Y180373D02*
Y197077D01*
X45627Y169000D02*
X57000Y180373D01*
X53500Y181822D02*
Y195627D01*
X46178Y174500D02*
X53500Y181822D01*
X50000Y183272D02*
Y194178D01*
X44728Y178000D02*
X50000Y183272D01*
X46500Y184722D02*
Y192728D01*
X43278Y181500D02*
X46500Y184722D01*
X158500Y148500D02*
Y149907D01*
X43638Y169000D02*
X45627D01*
X116106Y33706D02*
Y52806D01*
Y27706D02*
Y33706D01*
X109000Y20600D02*
Y26600D01*
X133000Y10500D02*
Y43100D01*
X132100Y44000D02*
X133000Y43100D01*
X196000Y187500D02*
Y195000D01*
X190500Y200500D02*
X196000Y195000D01*
X89500Y263000D02*
X120900D01*
X62300Y330300D02*
X71200Y339200D01*
Y380400D01*
X112150Y34750D02*
Y55850D01*
X115200Y58900D01*
X116106Y52806D02*
X118700Y55400D01*
X109000Y26600D02*
X116106Y33706D01*
X241000Y10500D02*
Y27000D01*
X104800Y65900D02*
X108200Y69300D01*
X104800Y37350D02*
Y65900D01*
X56500Y207477D02*
X64000Y199977D01*
X56500Y312500D02*
X114500Y370500D01*
X52100Y206927D02*
X60500Y198527D01*
X52100Y206927D02*
Y368700D01*
X139000Y10500D02*
Y43000D01*
X135600Y46400D02*
X139000Y43000D01*
X135600Y74700D02*
X144000Y83100D01*
X223000Y10500D02*
Y32000D01*
X235000Y25996D02*
X298250Y89246D01*
X271500Y118800D02*
X287750Y135050D01*
X220500Y380500D02*
X230000Y390000D01*
X234500Y83900D02*
X275000D01*
X291250Y100150D01*
Y231203D01*
X285486Y236967D02*
Y390514D01*
X210500Y380500D02*
X223700Y393700D01*
X265100Y96900D02*
X272600Y89400D01*
X265100Y96900D02*
Y123500D01*
X284250Y142650D01*
Y225219D01*
X277100Y232369D02*
X284250Y225219D01*
X277100Y232369D02*
Y380000D01*
X141100Y51530D02*
Y69700D01*
X149900Y78500D01*
X164000Y148000D02*
X199500Y183500D01*
X174500Y380500D02*
X181500Y373500D01*
X151000Y10500D02*
Y62100D01*
X158000Y69100D01*
Y78185D01*
X163000Y10500D02*
Y62100D01*
X165000Y64100D01*
X187000Y10500D02*
Y97000D01*
X229000Y27800D02*
X294750Y93550D01*
Y332300D01*
X291100Y335950D02*
X294750Y332300D01*
X207500Y119300D02*
X211000Y115800D01*
X207500Y119300D02*
Y139950D01*
X213776Y146226D01*
X220635D01*
X245921Y171513D01*
X252500D02*
X260500Y179513D01*
X200500Y145752D02*
X207974Y153226D01*
X213226D02*
X250500Y190500D01*
X269453Y225050D02*
X276500Y218003D01*
X269453Y225050D02*
Y341547D01*
X256000Y152200D02*
X273000Y169200D01*
Y215263D01*
X210500Y370500D02*
X265953Y315047D01*
X250500Y219000D02*
Y310500D01*
X185000Y364500D02*
X188500Y361000D01*
X185000Y364500D02*
Y383500D01*
X187500Y386000D02*
X195000D01*
X200500Y380500D01*
X211000Y120900D02*
X212600Y119300D01*
X247800Y131500D02*
Y155000D01*
X250600Y157800D01*
X269500Y170900D02*
Y207500D01*
X260500Y216500D02*
Y310500D01*
X200500Y370500D02*
X260500Y310500D01*
X131500Y403500D02*
X154500Y380500D01*
X33950Y403500D02*
X131500D01*
X29000Y398550D02*
X33950Y403500D01*
X38100Y201128D02*
Y288900D01*
Y201128D02*
X46500Y192728D01*
X38700Y361901D02*
X41600Y359001D01*
X38700Y361901D02*
Y393500D01*
X115000Y400000D02*
X134500Y380500D01*
X32900Y397500D02*
X35400Y400000D01*
X30000Y409400D02*
X135600D01*
X23800Y403200D02*
X30000Y409400D01*
X23800Y297700D02*
X30000Y291500D01*
X48600Y205477D02*
X57000Y197077D01*
X45800Y364700D02*
X48600Y361900D01*
X45800Y364700D02*
Y383400D01*
X48400Y386000D01*
X89000D01*
X121000Y52700D02*
X125000Y56700D01*
X146630Y47600D02*
Y69730D01*
X161500Y76500D02*
X193500Y108500D01*
Y156750D02*
X207725Y170975D01*
X169000Y67300D02*
X172000Y70300D01*
X241200Y157800D02*
X247563Y164163D01*
X255763D01*
X266000Y174400D01*
X265953Y206000D02*
X266000Y205953D01*
X205000Y10500D02*
Y116800D01*
X204000Y117800D02*
Y142600D01*
X211126Y149726D01*
X218626D01*
X246000Y177100D01*
X45100Y204027D02*
X53500Y195627D01*
X42300Y363250D02*
X45100Y360450D01*
X42300Y363250D02*
Y387700D01*
X42200Y387800D02*
X45100Y390700D01*
X49000Y10500D02*
Y23000D01*
X55000Y10500D02*
Y25000D01*
X282300Y393700D02*
X285486Y390514D01*
X230500Y380500D02*
X236000Y386000D01*
X188500Y361000D02*
X200000D01*
X250500Y310500D01*
X260500Y216500D02*
X269500Y207500D01*
X265953Y222310D02*
X273000Y215263D01*
X265953Y222310D02*
Y315047D01*
X273048Y226905D02*
X280400Y219553D01*
X273048Y226905D02*
Y367952D01*
X276500Y151500D02*
Y218003D01*
X280400Y147300D02*
Y219553D01*
X266000Y174400D02*
Y205953D01*
X236000Y206000D02*
X265953D01*
X181500Y222500D02*
Y373500D01*
Y222500D02*
X199500Y204500D01*
Y183500D02*
Y204500D01*
X174500Y348000D02*
Y370500D01*
X56500Y207477D02*
Y312500D01*
X48600Y205477D02*
Y361900D01*
X45100Y204027D02*
Y360450D01*
X41600Y202578D02*
Y359001D01*
X29000Y298000D02*
X38100Y288900D01*
X41600Y202578D02*
X50000Y194178D01*
X29000Y298000D02*
Y398550D01*
X23800Y297700D02*
Y403200D01*
X45100Y390700D02*
X94300D01*
X89000Y386000D02*
X94500Y380500D01*
X94300Y390700D02*
X104500Y380500D01*
X25100Y193500D02*
X33000D01*
X30000Y288000D02*
Y291500D01*
X32900Y391522D02*
Y397500D01*
Y391522D02*
X34500Y389922D01*
X42200Y387800D02*
X42300Y387700D01*
X135600Y46400D02*
Y74700D01*
X103000Y25600D02*
X112150Y34750D01*
X103000Y10500D02*
Y25600D01*
X235000Y10500D02*
Y25996D01*
X298250Y89246D02*
Y369350D01*
X291600Y376000D02*
X298250Y369350D01*
X287750Y135050D02*
Y227703D01*
X281986Y233467D02*
X287750Y227703D01*
X281986Y233467D02*
Y386114D01*
X285486Y236967D02*
X291250Y231203D01*
X149900Y78500D02*
Y88400D01*
X171000Y142547D02*
X210500Y182047D01*
Y190500D01*
X187000Y97000D02*
X197000Y107000D01*
X229000Y10500D02*
Y27800D01*
X207974Y153226D02*
X213226D01*
X200500Y105500D02*
Y145752D01*
X199000Y10500D02*
X200500Y105500D01*
X185000Y383500D02*
X187500Y386000D01*
X211000Y134100D02*
X217100Y140200D01*
X211000Y120900D02*
Y134100D01*
X212600Y119300D02*
X235600D01*
X247800Y131500D01*
X250600Y157800D02*
X256400D01*
X269500Y170900D01*
X35400Y400000D02*
X115000D01*
X135600Y409400D02*
X164500Y380500D01*
X108425Y59125D02*
X111700Y62400D01*
X108425Y36025D02*
Y59125D01*
X109000Y10500D02*
Y20600D01*
X116106Y27706D01*
X151200Y209500D02*
X159100Y217400D01*
X121000Y10500D02*
Y52700D01*
X125000Y56700D02*
Y73800D01*
X205200Y211000D02*
Y219900D01*
X196000Y229100D02*
X205200Y219900D01*
X173753Y165253D02*
X196000Y187500D01*
X193500Y108500D02*
Y156750D01*
X161500Y67600D02*
Y76500D01*
X157000Y63100D02*
X161500Y67600D01*
X157000Y10500D02*
Y63100D01*
X181000Y10500D02*
Y52320D01*
X193000Y10500D02*
Y82000D01*
X204000Y117800D02*
X205000Y116800D01*
X90100Y77500D02*
X94500Y81900D01*
X169000Y10500D02*
Y67300D01*
X216500Y124800D02*
X241200Y149500D01*
Y157800D01*
X230500Y200500D02*
X236000Y206000D01*
X223000Y32000D02*
X228000Y37000D01*
Y94900D01*
X280400Y147300D01*
X260500Y380500D02*
X273048Y367952D01*
X145000Y10500D02*
Y45970D01*
X146630Y47600D01*
Y69730D02*
X154500Y77600D01*
Y85400D01*
X167500Y145500D02*
X203000Y181000D01*
Y193000D01*
X210500Y200500D01*
X274900Y149900D02*
X276500Y151500D01*
X240500Y370500D02*
X269453Y341547D01*
X217000Y10500D02*
Y37000D01*
X222500Y42500D01*
X175000Y10500D02*
Y58000D01*
X165000Y64100D02*
Y71800D01*
X174500Y81300D01*
X211000Y10500D02*
Y115800D01*
X245921Y171513D02*
X252500D01*
X260500Y179513D02*
Y190500D01*
X33000Y124500D02*
X41280Y132780D01*
X58169D01*
X122500Y154500D02*
X130000Y162000D01*
X119000Y145000D02*
Y161450D01*
X124500Y166950D01*
Y170500D01*
X115047Y198241D02*
X117000Y196289D01*
X111547Y196792D02*
X113500Y194839D01*
X117000Y194000D02*
X120500Y190500D01*
X117000Y194000D02*
Y196289D01*
X108047Y195342D02*
X110000Y193389D01*
X113500Y184000D02*
Y194839D01*
Y184000D02*
X119000Y178500D01*
X129500D01*
X115500Y151500D02*
Y177000D01*
X110000Y182500D02*
X115500Y177000D01*
X110000Y182500D02*
Y193389D01*
X128500Y85179D02*
Y88350D01*
X132100Y44000D02*
Y87001D01*
X115200Y80000D02*
X127000Y91800D01*
X128500Y88350D02*
X130500Y90350D01*
X132100Y87001D02*
X134000Y88901D01*
X112000Y153500D02*
Y175550D01*
X106500Y181050D02*
X112000Y175550D01*
X106500Y181050D02*
Y191939D01*
X104547Y193892D02*
X106500Y191939D01*
X158000Y78185D02*
X171000Y91185D01*
X154500Y85400D02*
X167500Y98400D01*
X149900Y88400D02*
X164000Y102500D01*
X171000Y91185D02*
Y142547D01*
X167500Y98400D02*
Y145500D01*
X164000Y102500D02*
Y148000D01*
X158500Y114000D02*
Y148500D01*
X147400Y132000D02*
X148500D01*
X158500Y105100D02*
Y106222D01*
X153000Y111722D02*
X158500Y106222D01*
X153000Y111722D02*
Y127500D01*
X148500Y132000D02*
X153000Y127500D01*
X140900Y143300D02*
Y153900D01*
X170500Y183500D01*
Y190500D01*
X135400Y146350D02*
X137400Y148350D01*
Y155350D01*
X140500Y158450D01*
Y190500D01*
X133900Y149800D02*
Y156799D01*
X136500Y159399D01*
Y171500D01*
X147000Y145000D02*
X167253Y165253D01*
X173753D01*
X147000Y139800D02*
Y145000D01*
X139493Y137800D02*
X145000D01*
X147000Y139800D01*
X134000Y132307D02*
X139493Y137800D01*
X131600Y138400D02*
X132453Y139253D01*
X101047Y181553D02*
Y216047D01*
Y181553D02*
X108500Y174100D01*
Y154950D02*
Y174100D01*
X120000Y100500D02*
Y102559D01*
X121453Y104012D01*
X123500Y101109D02*
X124953Y102562D01*
X127000Y99660D02*
X128453Y101112D01*
Y114888D01*
X130500Y90350D02*
Y98210D01*
X131953Y99663D01*
Y116338D01*
X130500Y117790D02*
X131953Y116338D01*
X130500Y117790D02*
Y131722D01*
X134000Y88901D02*
Y96760D01*
X135453Y98213D01*
Y117787D01*
X134000Y119240D02*
X135453Y117787D01*
X134000Y119240D02*
Y132307D01*
X127000Y91800D02*
Y99660D01*
X123500Y95300D02*
Y101109D01*
X111700Y83500D02*
X123500Y95300D01*
X116000Y96500D02*
X120000Y100500D01*
X110000Y90400D02*
Y90500D01*
X108200Y88600D02*
X110000Y90400D01*
Y90500D02*
X116000Y96500D01*
X104700Y90150D02*
X109500Y94950D01*
X103500Y71000D02*
X104700Y72200D01*
X103500Y70943D02*
Y71000D01*
X94150Y42650D02*
Y66650D01*
X101300Y73800D01*
X104700Y72200D02*
Y72250D01*
X104800Y72350D01*
Y75250D01*
X104700Y75350D02*
X104800Y75250D01*
X104700Y75350D02*
Y90150D01*
X108200Y69300D02*
Y70801D01*
X108300Y70900D01*
Y76700D01*
X108200Y76799D02*
X108300Y76700D01*
X108200Y76799D02*
Y88600D01*
X111700Y62400D02*
Y69351D01*
X111800Y69451D01*
Y78149D01*
X111700Y78249D02*
X111800Y78149D01*
X111700Y78249D02*
Y83500D01*
X115200Y58900D02*
Y67901D01*
X115300Y68001D01*
Y79599D01*
X115200Y79699D02*
X115300Y79599D01*
X115200Y79699D02*
Y80000D01*
X118700Y55400D02*
Y66451D01*
X118800Y66551D01*
Y75479D01*
X128500Y85179D01*
X101200Y73900D02*
X101300Y73800D01*
X101200Y73900D02*
Y89859D01*
X97547Y180104D02*
Y200153D01*
X80000Y217700D02*
X97547Y200153D01*
X74400Y214325D02*
X94047Y194678D01*
Y177953D02*
Y194678D01*
X97547Y93512D02*
Y133547D01*
Y93512D02*
X101200Y89859D01*
X86600Y82600D02*
X94047Y90047D01*
Y134997D01*
X91500Y142500D02*
Y156000D01*
X109500Y94950D02*
Y119050D01*
X120000Y113441D02*
Y113500D01*
Y113441D02*
X121453Y111988D01*
Y104012D02*
Y111988D01*
X123500Y114891D02*
Y115000D01*
Y114891D02*
X124953Y113438D01*
Y102562D02*
Y113438D01*
X127000Y116340D02*
Y116500D01*
Y116340D02*
X128453Y114888D01*
X122600Y120900D02*
X127000Y116500D01*
X122500Y142228D02*
X122600Y142128D01*
X122500Y142228D02*
Y154500D01*
X126100Y136122D02*
X130500Y131722D01*
X126100Y136122D02*
Y141999D01*
X133900Y149800D01*
X122600Y120900D02*
Y142128D01*
X117000Y143000D02*
X119000Y145000D01*
X117000Y139500D02*
Y143000D01*
D12*
X47500Y144866D02*
D03*
Y93134D02*
D03*
D13*
X58169Y105220D02*
D03*
Y132780D02*
D03*
D14*
Y115063D02*
D03*
Y122937D02*
D03*
X38700Y393500D02*
D03*
X43638Y169000D02*
D03*
D15*
X210500Y190500D02*
D03*
X120500D02*
D03*
X190500Y370500D02*
D03*
X84500D02*
D03*
X88000Y107500D02*
D03*
X116000Y108000D02*
D03*
X103000Y98500D02*
D03*
D16*
X210500Y200500D02*
D03*
X220500Y190500D02*
D03*
Y200500D02*
D03*
X230500Y190500D02*
D03*
Y200500D02*
D03*
X240500Y190500D02*
D03*
Y200500D02*
D03*
X250500Y190500D02*
D03*
Y200500D02*
D03*
X260500Y190500D02*
D03*
Y200500D02*
D03*
X190500D02*
D03*
Y190500D02*
D03*
X180500Y200500D02*
D03*
Y190500D02*
D03*
X170500Y200500D02*
D03*
Y190500D02*
D03*
X160500Y200500D02*
D03*
Y190500D02*
D03*
X150500Y200500D02*
D03*
Y190500D02*
D03*
X140500Y200500D02*
D03*
Y190500D02*
D03*
X130500Y200500D02*
D03*
Y190500D02*
D03*
X120500Y200500D02*
D03*
X260500Y380500D02*
D03*
Y370500D02*
D03*
X250500Y380500D02*
D03*
Y370500D02*
D03*
X240500Y380500D02*
D03*
Y370500D02*
D03*
X230500Y380500D02*
D03*
Y370500D02*
D03*
X220500Y380500D02*
D03*
Y370500D02*
D03*
X210500Y380500D02*
D03*
Y370500D02*
D03*
X200500Y380500D02*
D03*
Y370500D02*
D03*
X190500Y380500D02*
D03*
X174500D02*
D03*
Y370500D02*
D03*
X164500Y380500D02*
D03*
Y370500D02*
D03*
X154500Y380500D02*
D03*
Y370500D02*
D03*
X144500Y380500D02*
D03*
Y370500D02*
D03*
X134500Y380500D02*
D03*
Y370500D02*
D03*
X124500Y380500D02*
D03*
Y370500D02*
D03*
X114500Y380500D02*
D03*
Y370500D02*
D03*
X104500Y380500D02*
D03*
Y370500D02*
D03*
X94500Y380500D02*
D03*
Y370500D02*
D03*
X84500Y380500D02*
D03*
X78500Y162500D02*
D03*
X46000Y67500D02*
D03*
X40000Y78500D02*
D03*
X9500Y37500D02*
D03*
X21000Y32500D02*
D03*
X291500Y376000D02*
D03*
X53500Y63500D02*
D03*
X33500Y53000D02*
D03*
X78000Y36000D02*
D03*
X94000Y42500D02*
D03*
X58500Y76500D02*
D03*
X29000D02*
D03*
X28500Y134500D02*
D03*
X69272Y54200D02*
D03*
X80400Y60300D02*
D03*
X77600Y74800D02*
D03*
X124500Y170500D02*
D03*
X89000Y232000D02*
D03*
X79900Y234700D02*
D03*
X34500Y302500D02*
D03*
X83000Y275000D02*
D03*
X137000Y353000D02*
D03*
X117500Y219000D02*
D03*
X87900Y220300D02*
D03*
X117500Y233000D02*
D03*
X117000Y241500D02*
D03*
X120000Y249000D02*
D03*
X138500Y215500D02*
D03*
X145500Y225500D02*
D03*
X120900Y263000D02*
D03*
X89500D02*
D03*
X62300Y330300D02*
D03*
X71200Y380400D02*
D03*
X158500Y148500D02*
D03*
X94500Y81900D02*
D03*
X159100Y217400D02*
D03*
X174500Y348000D02*
D03*
X140900Y143300D02*
D03*
X293200Y398000D02*
D03*
X52100Y368700D02*
D03*
X144000Y83100D02*
D03*
X271500Y118800D02*
D03*
X234500Y83900D02*
D03*
X272600Y89400D02*
D03*
X141100Y51530D02*
D03*
X174500Y81300D02*
D03*
X175000Y58000D02*
D03*
X41000Y187000D02*
D03*
X33000Y193500D02*
D03*
X291100Y335950D02*
D03*
X274900Y149900D02*
D03*
X256000Y152200D02*
D03*
X222500Y42500D02*
D03*
X250500Y219000D02*
D03*
X217100Y140200D02*
D03*
X81100Y83000D02*
D03*
X30000Y288000D02*
D03*
X125000Y73800D02*
D03*
X158500Y105100D02*
D03*
X205200Y211000D02*
D03*
X196000Y229100D02*
D03*
X207725Y170975D02*
D03*
X172000Y70300D02*
D03*
X216500Y124800D02*
D03*
X181000Y52320D02*
D03*
X193000Y82000D02*
D03*
X246000Y177100D02*
D03*
X23900Y246600D02*
D03*
X130000Y162000D02*
D03*
X158500Y114000D02*
D03*
X148500Y132000D02*
D03*
X131600Y138400D02*
D03*
X116000Y96500D02*
D03*
X91500Y142500D02*
D03*
Y156000D02*
D03*
X117000Y139500D02*
D03*
D17*
X194500Y245500D02*
D03*
Y410854D02*
D03*
M02*
