%FSLAX25Y25*%
%MOIN*%
G70*
G01*
G75*
G04 Layer_Physical_Order=2*
G04 Layer_Color=16711680*
%ADD10R,0.01969X0.00984*%
%ADD11R,0.05000X0.06000*%
%ADD12C,0.01000*%
%ADD13R,0.02976X0.16500*%
%ADD14R,0.02559X0.07087*%
%ADD15R,0.05906X0.05906*%
%ADD16C,0.05906*%
%ADD17R,0.05906X0.05906*%
G36*
X141740Y128185D02*
X143224D01*
Y128185D01*
X144135Y127951D01*
X144471Y127721D01*
Y119000D01*
X144587Y118415D01*
X144919Y117919D01*
X150047Y112790D01*
Y107547D01*
X157953D01*
Y113790D01*
X159134Y114971D01*
X162774D01*
X162777Y114958D01*
X163650Y113650D01*
X164958Y112777D01*
X166500Y112470D01*
X168042Y112777D01*
X168492Y113077D01*
X169500Y112538D01*
Y111165D01*
X168787Y110453D01*
X167000D01*
Y106500D01*
X166500D01*
Y106000D01*
X162547D01*
Y104213D01*
X161835Y103500D01*
X122953Y103500D01*
Y104971D01*
X132000D01*
X132585Y105087D01*
X133081Y105419D01*
X138081Y110419D01*
X138413Y110915D01*
X138529Y111500D01*
Y121500D01*
X138413Y122085D01*
X138081Y122581D01*
X136753Y123910D01*
X137171Y124918D01*
X138976D01*
X139742Y125235D01*
X140059Y126000D01*
Y127515D01*
X140389Y128009D01*
X140424Y128185D01*
X140740D01*
Y129677D01*
X141740D01*
Y128185D01*
D02*
G37*
G36*
X127481Y163000D02*
X127500Y162000D01*
X127500Y161992D01*
Y158500D01*
X134500D01*
Y161992D01*
X134519Y163000D01*
X138481Y163000D01*
X138500Y162000D01*
X138500D01*
Y158500D01*
X145500D01*
Y159337D01*
X147134Y160971D01*
X164262D01*
X164568Y159963D01*
X163650Y159350D01*
X162777Y158042D01*
X162774Y158029D01*
X151500D01*
X151012Y157932D01*
X150915Y157913D01*
X150419Y157581D01*
X147919Y155081D01*
X147587Y154585D01*
X147471Y154000D01*
Y152134D01*
X146508Y151171D01*
X145500Y151588D01*
Y153000D01*
X145500D01*
Y154000D01*
X145500D01*
Y157500D01*
X138500D01*
Y154000D01*
X138500D01*
Y153000D01*
X138500D01*
Y146029D01*
X135331D01*
X134500Y146822D01*
Y152992D01*
X134500Y153000D01*
Y153500D01*
Y154000D01*
X134500Y154008D01*
Y157500D01*
X127500D01*
Y154008D01*
X127500Y154000D01*
X127465Y153962D01*
X126413Y154084D01*
X126413Y154085D01*
X126081Y154581D01*
X123081Y157581D01*
X122585Y157913D01*
X122000Y158029D01*
X110226D01*
X110223Y158042D01*
X109350Y159350D01*
X108042Y160223D01*
X106500Y160530D01*
X104958Y160223D01*
X104508Y159923D01*
X103500Y160461D01*
Y162287D01*
X104213Y163000D01*
X127481D01*
D02*
G37*
%LPC*%
G36*
X166000Y110453D02*
X162547D01*
Y107000D01*
X166000D01*
Y110453D01*
D02*
G37*
%LPD*%
D10*
X137598Y131055D02*
D03*
X133760Y139520D02*
D03*
Y137551D02*
D03*
Y135583D02*
D03*
Y133614D02*
D03*
Y131646D02*
D03*
Y129677D02*
D03*
X141240D02*
D03*
Y131646D02*
D03*
Y133614D02*
D03*
Y135583D02*
D03*
Y137551D02*
D03*
Y139520D02*
D03*
D11*
X131000Y158000D02*
D03*
Y149000D02*
D03*
X142000D02*
D03*
Y158000D02*
D03*
D12*
X153500Y111500D02*
X158500Y116500D01*
X166500D01*
X146000Y119000D02*
X153500Y111500D01*
X154000Y124500D02*
X159000D01*
X161000Y126500D02*
X166500D01*
X159000Y124500D02*
X161000Y126500D01*
X144886Y133614D02*
X154000Y124500D01*
Y136500D02*
X166500D01*
X149500D02*
X154000D01*
X148583Y135583D02*
X149500Y136500D01*
X141240Y135583D02*
X148583D01*
X151500Y156500D02*
X166500D01*
X149000Y154000D02*
X151500Y156500D01*
X149000Y151500D02*
Y154000D01*
X154000Y146500D02*
X166500D01*
X149000D02*
X154000D01*
Y149000D01*
X142000Y158000D02*
X146500Y162500D01*
X169500D01*
X171500Y160500D01*
Y107500D02*
Y160500D01*
X170500Y106500D02*
X171500Y107500D01*
X166500Y106500D02*
X170500D01*
X148500Y146000D02*
X149000Y146500D01*
X148500Y142500D02*
Y146000D01*
X143551Y137551D02*
X148500Y142500D01*
X142000Y149000D02*
X146500D01*
X149000Y151500D01*
X142000Y145500D02*
Y149000D01*
X141000Y144500D02*
X142000Y145500D01*
X135020Y144500D02*
X141000D01*
X141240Y139520D02*
Y144260D01*
X133760Y143240D02*
X135020Y144500D01*
X133760Y139520D02*
Y143240D01*
X127000Y146500D02*
X131000D01*
X125000Y148500D02*
X127000Y146500D01*
X125000Y148500D02*
Y153500D01*
X122000Y156500D02*
X125000Y153500D01*
X106500Y156500D02*
X122000D01*
X119000Y148500D02*
X129949Y137551D01*
X138976Y128595D02*
Y140405D01*
X136024Y128595D02*
Y140405D01*
X136516Y138043D02*
X138779D01*
X136024Y130957D02*
X138976D01*
X110500Y150500D02*
X119000D01*
X106500Y146500D02*
X110500Y150500D01*
X129949Y137551D02*
X133760D01*
X113500Y138000D02*
X119000D01*
X112000Y136500D02*
X113500Y138000D01*
X106500Y136500D02*
X112000D01*
X119000Y138000D02*
X125000D01*
X127417Y135583D01*
X133760D01*
X119000Y125500D02*
X127114Y133614D01*
X133760D01*
X128000Y129000D02*
X130646Y131646D01*
X133760D01*
X128000Y124500D02*
Y129000D01*
Y124500D02*
X131500Y121000D01*
Y116500D02*
Y121000D01*
X133760Y124740D02*
Y129654D01*
Y124740D02*
X137000Y121500D01*
X106500Y116500D02*
X131500D01*
X119000Y106500D02*
X132000D01*
X137000Y111500D01*
Y121500D01*
X106500Y106500D02*
X119000D01*
X146000Y119000D02*
Y129000D01*
X143354Y131646D02*
X146000Y129000D01*
X141240Y131646D02*
X143354D01*
X141240Y133614D02*
X144886D01*
X141240Y137551D02*
X143551D01*
D13*
X137488Y134250D02*
D03*
D14*
X137500Y134500D02*
D03*
D15*
X166500Y106500D02*
D03*
X106500D02*
D03*
X154000Y149000D02*
D03*
D16*
X166500Y116500D02*
D03*
Y126500D02*
D03*
Y136500D02*
D03*
Y146500D02*
D03*
Y156500D02*
D03*
X106500Y116500D02*
D03*
Y126500D02*
D03*
Y136500D02*
D03*
Y146500D02*
D03*
Y156500D02*
D03*
D17*
X119000Y106500D02*
D03*
X131500Y116500D02*
D03*
X119000Y125500D02*
D03*
Y138000D02*
D03*
Y150500D02*
D03*
X154000Y111500D02*
D03*
Y124000D02*
D03*
Y136500D02*
D03*
M02*
